<?xml version="1.0" encoding="UTF-8" standalone="no"?>
<!-- Created with Inkscape (http://www.inkscape.org/) -->

<svg
   width="102.77616mm"
   height="95.029274mm"
   viewBox="0 0 102.77616 95.029274"
   version="1.1"
   id="svg1"
   inkscape:version="1.4.2 (f4327f4, 2025-05-13)"
   sodipodi:docname="pug-2.svg"
   xmlns:inkscape="http://www.inkscape.org/namespaces/inkscape"
   xmlns:sodipodi="http://sodipodi.sourceforge.net/DTD/sodipodi-0.dtd"
   xmlns="http://www.w3.org/2000/svg"
   xmlns:svg="http://www.w3.org/2000/svg">
  <sodipodi:namedview
     id="namedview1"
     pagecolor="#505050"
     bordercolor="#eeeeee"
     borderopacity="1"
     inkscape:showpageshadow="0"
     inkscape:pageopacity="0"
     inkscape:pagecheckerboard="0"
     inkscape:deskcolor="#505050"
     inkscape:document-units="mm"
     inkscape:zoom="0.73512619"
     inkscape:cx="221.73064"
     inkscape:cy="301.30882"
     inkscape:window-width="1920"
     inkscape:window-height="1009"
     inkscape:window-x="2552"
     inkscape:window-y="-8"
     inkscape:window-maximized="1"
     inkscape:current-layer="layer1" />
  <defs
     id="defs1" />
  <g
     inkscape:label="Calque 1"
     inkscape:groupmode="layer"
     id="layer1"
     transform="translate(-48.416924,-58.308794)">
    <g
       id="g1">
      <g
         id="g24"
         transform="matrix(0.26458333,0,0,0.26458333,-264.86897,-430.83067)">
        <path
           style="fill:#eabc6c;fill-opacity:1;stroke-width:0.877464"
           d="m 1359.4858,2199.9092 c -1.3107,-1.4484 -1.7656,-3.2486 -0.9556,-8.4597 0.5046,-3.2465 0.5211,-4.3452 0.3112,-4.3452 -1.1914,0 -4.252,5.5882 -4.2711,8.288 -0.01,1.0458 0.1844,2.9781 -0.2614,3.6828 -0.6908,1.0922 -1.314,2.0899 -3.7713,0.03 -1.0895,-0.9132 -3.9079,-3.7947 -4.0859,-5.3524 -1.0192,-8.9206 -0.1738,-8.451 5.0041,-13.797 2.5889,-2.673 5.3965,-5.9691 5.9334,-7.7066 1.4725,-4.7649 1.6853,-34.6107 0.4333,-40.6412 -1.0743,-5.1751 -0.996,-6.126 -2.5172,-4.6048 -0.9388,0.9389 -1.5319,12.8836 -2.4271,31.3691 l -0.5797,11.9702 -6.673,-0.7047 c -22.1845,-2.3427 -45.979,-16.1602 -66.2591,-37.836 -3.8381,-4.1022 -6.2576,-7.3385 -6.5607,-6.8481 -1.3307,2.1532 6.7545,14.1864 16.3887,24.8355 3.6812,4.0689 7.2485,7.023 7.3181,7.9337 0.3125,4.0916 -4.8174,17.4178 -7.7509,21.8302 -5.1238,7.7071 -14.0005,13.5872 -18.8694,13.2742 -2.6735,-0.1719 -2.4601,-0.8622 -1.9405,-7.9536 0.5,-6.8237 -0.5432,-7.7982 -1.8318,-7.5096 -0.4086,0.091 -0.2783,3.4432 -0.5564,7.5583 l -0.5492,8.1294 -4.8728,0.02 c -5.7526,0.024 -7.4115,-2.2707 -6.0289,-8.4927 0.568,-2.5558 1.5208,-5.3564 1.8501,-6.491 0.4944,-1.7036 0.872,-2.1949 -0.4999,-1.932 -1.8956,0.3631 -3.8994,6.1131 -5.236,11.5752 -1.0766,4.3996 -4.6818,3.9346 -6.9816,0.4246 -2.1537,-3.287 -0.7022,-10.9783 2.6695,-15.4956 6.9263,-9.2798 7.0395,-8.7987 8.0139,-16.3854 0.9949,-7.7464 0.5896,-23.6672 -0.9777,-35.1391 -0.4945,-3.6195 -2.8784,-12.5662 -4.7796,-19.8907 -3.6829,-14.1895 -6.0003,-28.3506 -5.0077,-40.8261 l 0.3287,-4.1322 0.9673,-0.3416 0.892,0.6461 0.9214,0.936 c 2.3012,2.3375 4.1624,2.4856 5.3688,1.4104 0.4772,-0.4253 -6.0965,-7.0538 -15.326,-16.1255 -17.8842,-17.5784 -20.2692,-20.6835 -23.63,-34.0029 -5.4655,-21.6604 3.7207,-60.5502 22.1857,-96.8106 5.2838,-10.3761 12.5507,-22.2233 18.4076,-29.1692 6.3681,-7.5521 13.4397,-13.371 22.7431,-17.934 16.1342,-7.9132 29.9039,-10.1324 56.5314,-9.4397 19.1976,0.4994 29.8817,2.2769 41.8419,5.9889 9.7134,3.0147 14.4908,5.8107 16.7192,10.1787 1.0122,1.9842 5.9158,9.571 10.4377,16.3736 7.9583,11.9723 8.0097,13.043 10.9583,24.0847 3.6426,13.6407 5.4953,19.6138 8.5911,25.7906 6.3268,12.6239 19.1721,23.6165 27.6555,23.229 5.4726,-0.25 5.0489,2.3272 5.045,18.6455 0,18.861 -2.5969,31.4212 -9.208,44.7117 -1.3786,2.7714 -2.7936,4.1527 -2.3613,4.4198 2.1239,1.3127 8.8091,-5.2176 12.2906,-12.3333 l 2.6512,-5.4184 3.842,5.6675 c 1.7907,2.6415 6.8853,7.1545 11.1447,10.5112 24.0791,18.9756 35.7924,32.3582 45.8294,53.3534 8.5544,17.8939 11.5274,34.3006 9.8935,51.7265 -1.8852,20.105 -6.2213,32.6818 -15.2945,41.3162 -6.5682,6.2505 -14.6746,10.6687 -27.4528,14.9108 -13.8679,4.6038 -23.7762,6.4814 -33.0135,6.6045 -11.3952,0.1519 -12.8685,-2.0792 -10.1531,-14.3126 0.4024,-1.813 0.7571,-2.1162 0.1641,-2.2256 -1.6976,-0.3132 -4.8659,6.6652 -4.8659,10.2223 0,3.2158 1.0953,4.8416 -4.514,3.5068 -0.9218,-0.2194 -2.2864,-0.6272 -2.6785,-1.2305 -0.8354,-1.2856 0.4166,-4.0582 2.662,-8.5064 1.4794,-2.9306 3.0912,-5.6771 2.7797,-5.9885 -0.5824,-0.5825 -3.4325,4.2636 -7.5198,8.3585 l -1.2428,2.0897 -1.2599,0.4177 -0.5905,-3.0349 c -1.6213,-8.3331 10.6055,-15.9731 22.9807,-16.6771 1.7958,-0.1022 3.2261,-0.4644 4.3206,-0.1189 1.4413,0.4551 2.4607,1.8163 4.5623,3.4205 4.0931,3.1245 7.3978,5.0852 8.373,4.11 1.2525,-1.2525 -1.4659,-3.4049 -8.9483,-10.2732 -10.9329,-10.0357 -13.7722,-15.716 -13.6712,-27.7867 0.056,-6.6555 0.8609,-9.8721 2.6329,-14.5951 3.3192,-8.847 6.4785,-15.7974 13.7986,-21.5762 l 5.8712,-4.6352 -2.4203,0.4595 c -9.9102,1.8816 -18.6408,9.5517 -24.032,23.9609 -5.6146,15.0064 -3.9904,28.5464 5.7142,38.7109 l 4.9991,5.2359 -5.7817,-0.2657 c -3.3357,-0.1532 -6.4356,2.3708 -12.8401,5.4915 -8.2543,4.0221 -17.146,4.3787 -19.5376,2.7377 -0.8893,-0.6101 0.3455,-2.8919 2.0731,-9.3475 3.341,-12.4841 6.4254,-30.057 6.1234,-38.5862 l -0.2486,-6.8101 -2.8472,5.0551 c -1.976,3.5083 -3.8719,13.3477 -7.1658,26.3864 -4.9382,19.5472 -8.6318,31.5446 -11.4543,37.0692 -1.9634,3.8431 -7.6698,9.1543 -12.6572,12.4648 -7.9213,5.2579 -12.0723,3.4433 -9.9896,-7.0041 0.627,-3.1449 0.4336,-5.0924 0.1668,-4.9434 -1.1079,0.6187 -3.822,9.5108 -3.7413,10.4583 l 0.3469,4.0715 -5.3435,0.3537 c -2.6999,0.1788 -5.533,-0.6982 -6.7032,-1.9704 z m -55.4962,-133.9061 c 8.2337,-2.9463 10.9226,-3.4817 17.5975,-3.504 14.7677,-0.049 29.3709,-8.3535 39.3963,-22.4029 11.0237,-15.4483 11.5738,-31.9577 1.5313,-45.9588 -1.482,-2.0663 -1.4738,-2.0834 0.659,-1.3796 3.266,1.0778 13.2005,0.8025 17.0649,-0.4729 4.7367,-1.5633 11.2639,-7.9428 13.7275,-13.417 1.692,-3.7597 2.0601,-6.06 2.0662,-12.9107 0.01,-9.82 -1.379,-13.2136 -7.8375,-19.1669 -11.2022,-10.3258 -26.7591,-10.0115 -36.8194,0.7438 -5.5988,5.9856 -6.9143,9.5019 -6.8923,18.4231 0.01,4.1021 0.4719,8.599 1.0262,9.9931 0.5542,1.3941 0.86,2.6824 0.6796,2.8628 -0.1804,0.1804 -4.0413,-3.0946 -8.5798,-7.2778 -15.7783,-14.5431 -22.7173,-18.5427 -33.5984,-19.3656 -5.0863,-0.3847 -7.7489,-0.097 -12.4951,1.3477 -6.7162,2.0451 -15.026,6.7127 -19.5137,10.9609 -2.8285,2.6775 -2.9208,2.7028 -2.1937,0.6014 0.4175,-1.2065 0.7434,-4.582 0.7242,-7.5011 -0.094,-14.3493 -14.4923,-24.5196 -26.9259,-19.0197 -5.6583,2.503 -10.4824,7.2081 -13.4227,13.0919 -2.2304,4.4631 -2.5493,6.0696 -2.5787,12.9902 -0.029,6.8335 0.2619,8.4234 2.1601,11.8047 3.0608,5.4522 8.6433,9.4988 14.1034,10.2232 4.28,0.5677 4.3501,0.6245 3.0097,2.4386 -0.7549,1.0216 -3.0385,5.2137 -5.0748,9.3158 -3.5313,7.1138 -3.7017,7.8233 -3.6873,15.3556 0.017,8.7834 1.6151,13.1326 6.8798,18.721 3.6573,3.8821 6.3506,5.1969 12.0527,5.8842 2.6092,0.3145 5.8138,1.3234 7.1214,2.2421 1.3076,0.9186 2.7461,1.6703 3.1966,1.6703 1.0223,0 1.8844,2.162 1.8844,4.7255 0,3.508 4.4352,10.9493 8.9401,14.9996 7.4865,6.731 14.9123,7.877 25.7984,3.9815 z"
           id="path3"
           sodipodi:nodetypes="csscsssssssscsssssssssscssssssssssscccsssssssssssssscssscsssssssssssssssccssssssssscssscssssscssssssscscssssssscssssssscssssssssssssssssss" />
        <path
           style="fill:#62401f;fill-opacity:1;stroke-width:0.877464"
           d="m 1445.1929,1951.7824 c -8.3877,-2.6811 -17.2975,-15.3927 -22.4816,-32.5502 -10.1078,-33.4527 -10.2586,-34.4441 -20.5167,-42.6465 -4.3477,-3.4764 -9.3308,-7.4977 -9.3308,-7.8636 0,-1.1406 7.0756,-6.6335 11.5029,-8.8769 7.8468,-3.9763 10.9568,-3.1582 28.6785,7.3612 5.2466,3.1143 14.4657,7.0585 19.3997,8.9599 23.7338,9.1461 27.8927,15.1966 27.7853,31.5983 -0.055,8.476 -1.7577,13.6073 -7.5072,22.2558 -5.3655,8.0709 -14.911,19.051 -19.0747,21.1751 -1.8428,0.9402 -4.5617,0.6819 -4.7016,0.6327 -0.1399,-0.049 -2.1307,0.473 -3.7538,-0.046 z"
           id="path4"
           sodipodi:nodetypes="ssssssscsssss" />
        <path
           style="fill:#67411e;fill-opacity:1;stroke-width:0.877464"
           d="m 1207.1341,1938.9051 c -2.1315,-1.2184 -5.137,-4.0983 -5.8077,-4.9252 -2.9304,-3.6127 -7.7737,-15.2132 -8.6415,-20.467 -1.7346,-10.5003 0.3651,-24.2771 4.9423,-29.3387 2.3241,-2.5699 7.8602,-4.7025 23.4411,-10.0526 7.9202,-2.7196 18.0669,-6.9957 22.1691,-9.218 15.0263,-8.1402 15.9328,-8.605 19.1874,-8.605 4.2273,0 12.0957,1.2217 12.0957,2.0717 0,0.3656 -4.837,3.8603 -8.0946,5.9649 -8.1828,5.2867 -22.4143,19.5044 -28.5582,28.7634 -6.1115,9.2102 -15.4884,28.0003 -19.8869,39.3523 -1.7507,4.5182 -3.9859,9.0697 -4.5393,9.0638 -0.5534,-0.01 -4.176,-1.3913 -6.3074,-2.6096 z"
           id="path5"
           sodipodi:nodetypes="ssssssssssscs" />
        <path
           style="fill:#66421c;fill-opacity:1;stroke-width:0.877464"
           d="m 1321.7522,2031.9909 c -9.3278,-2.5945 -17.5292,-9.858 -21.1193,-16.8304 -1.2955,-2.5161 -1.7597,-6.284 -2.1305,-12.4244 -0.31,-5.1327 -0.6123,-9.3194 -0.3106,-9.3899 2.5815,-0.6036 3.8466,-0.709 7.0919,-1.2159 2.7543,-0.4303 5.105,-1.3418 6.839,-3.6025 2.1061,-2.7458 2.1748,-3.2727 2.6014,-7.0367 0.2087,-1.8418 -0.5769,-3.0218 -0.9964,-4.0258 -0.5381,-1.2877 -0.9493,-2.286 -2.9461,-4.0199 -5.3902,-4.6807 -10.8375,-5.9472 -19.3247,-3.9789 -6.4194,1.4888 -9.7316,2.9486 -11.3758,5.1032 -1.486,1.9473 -1.8708,8.3633 -0.3082,11.3849 0.7156,1.3839 3.3239,3.8551 6.2223,5.4127 l 5.3893,2.8962 -0.566,7.7888 c -0.6856,9.4353 -2.9168,14.1967 -9.0397,19.1844 -7.8797,6.4188 -13.6575,9.4015 -20.4831,9.4506 -6.3404,0.046 -9.736,-2.1338 -13.3179,-6.9376 -1.4883,-1.9959 -3.8602,-6.6437 -2.4907,-12.3821 1.4362,-6.0179 1.3109,-5.8701 3.4626,-10.0089 4.4144,-8.4913 9.4741,-15.7035 17.6197,-23.8345 9.2628,-9.2462 19.2143,-15.8981 26.4403,-18.1709 6.4256,-2.0211 16.1072,-1.5736 21.172,1.032 9.8396,5.0621 41.7601,35.2284 45.6613,43.2051 2.4209,4.9499 3.4867,13.9732 1.062,18.6128 l -1.1002,2.1053 -0.4185,-2.0189 c -0.2625,-1.2667 -0.5201,-2.9597 -1.2109,-3.6505 -1.0897,-1.0897 -0.6318,-0.6387 -5.5188,4.1295 -3.098,3.0228 -7.6364,7.0892 -9.5182,8.0371 -3.7577,1.8929 -13.1161,3.4854 -21.3862,1.1852 z"
           id="path6"
           sodipodi:nodetypes="ssssssssssssscssssssssssscsssss" />
        <path
           style="fill:#d86b46;fill-opacity:1;stroke-width:0.877464"
           d="m 1286.9374,2059.5902 c -6.3,-1.8845 -10.8988,-9.1288 -11.5682,-20.208 l -0.3019,-4.9981 3.9825,-2.052 c 2.098,-1.081 6.0137,-3.6547 8.6878,-6.1366 l 5.5824,-5.1814 4.9733,4.9657 c 5.2056,5.1976 10.2567,8.5745 16.6681,11.8124 2.5337,1.2796 5.4294,2.3288 5.4294,2.7339 0,1.428 -6.4273,10.4218 -11.4913,14.1286 -2.1579,1.5796 -3.9185,3.5781 -6.3086,4.551 -4.894,1.992 -10.677,1.8731 -15.6535,0.3845 z"
           id="path7"
           sodipodi:nodetypes="sscsscssssss" />
        <path
           style="fill:#62411d;fill-opacity:1;stroke-width:0.155115"
           d="m 1325.6491,2044.1514 c 0.5774,-1.4077 1.1206,-2.736 1.1395,-2.7627 0.019,-0.027 1.8098,-0.104 3.8447,-0.2256 5.1721,-0.3089 7.2379,-0.4832 9.2255,-0.8404 4.0488,-0.7277 7.2102,-2.3195 10.927,-5.4218 5.2394,-4.3733 7.6166,-8.7349 8.5902,-12.6194 l 0.2447,-0.9765 0.02,1.5124 c 0.011,0.8318 1.8162,-1.987 1.8044,-1.9165 -1.1354,6.8063 -2.0523,8.0595 -9.2281,15.8204 -8.8557,9.5777 -16.6801,14.1825 -25.6363,17.9532 -4.0146,1.6903 -6.6862,2.6898 -9.4287,2.524 -0.1127,-0.01 0.9802,-1.2214 1.9293,-2.3092 0,0 4.674,-6.1211 6.5678,-10.7379 z"
           id="path8"
           sodipodi:nodetypes="sssssscssssscs" />
        <path
           style="fill:#eabc6c;fill-opacity:1;stroke-width:0.877464"
           d="m 1534.1766,2103.6449 c -0.1983,-0.6032 -0.9487,-5.163 -1.9376,-8.7826 -0.9889,-3.6195 -2.7686,-8.847 -3.7778,-11.3644 l -2.1126,-5.2696 4.2745,-0.4861 c 6.3066,-0.7173 12.2811,-8.4027 12.4252,-17.106 0.1524,-9.2012 -2.085,-14.1228 -6.3363,-14.1228 -1.8942,0 -1.1284,0.4736 0.2852,8.7172 1.2514,7.2974 0.05,11.5072 -4.2703,14.1775 -6.1479,3.7996 -9.6489,3.4478 -20.9718,-13.8548 -8.0404,-12.2867 -10.0317,-13.7035 -8.4967,-18.804 2.2455,-7.4612 10.5002,-17.1875 17.7821,-20.2301 2.319,-0.9689 6.4183,-1.5561 10.5847,-1.258 14.4705,1.0354 26.9392,12.9402 31.3138,29.7353 2.6241,10.0749 1.1865,26.7254 -3.2848,36.4674 -2.657,5.7891 -10.0358,13.9154 -16.8279,18.451 -5.7061,3.8103 -8.0899,5.4329 -8.6497,3.73 z"
           id="path9"
           sodipodi:nodetypes="ssscsssssssssssss" />
        <path
           d="m 1348.4046,1981.8121 c 0,-0.2363 -1.7172,-1.7345 -2.631,-3.5664 -0.9139,-1.8318 -1.1991,-6.89 -1.4502,-10.8022 -0.5744,-8.9502 2.0267,-16.0188 8.316,-21.816 10.366,-9.5551 25.9109,-8.8574 36.5565,1.5046 5.2041,5.0653 6.903,9.7209 7.424,17.2841 0.7823,11.3558 -5.2691,23.1483 -14.2583,27.4999 -4.7042,2.2773 -15.5218,2.4636 -20.0899,0.7268 m 12.4,-30.3177 c 2.5991,-2.8841 3.151,-6.963 1.3201,-9.7573 -2.0596,-3.1433 -4.017,-3.1537 -7.1326,-0.038 -3.9979,3.9979 -2.7391,11.5455 1.9256,11.5455 1.2704,0 3.0195,-0.7875 3.8869,-1.75 z"
           style="fill:#422e11;fill-opacity:1"
           id="path1-5"
           sodipodi:nodetypes="csssssscssssss" />
        <path
           d="m 1371.6046,1929.5939 c -3.8938,-2.2825 -13.4939,-3.0497 -21.2477,-1.698 -7.4466,1.2982 -7.75,1.2758 -7.75,-0.5704 0,-3.0088 1.6857,-5.4327 5.3554,-7.7007 6.1593,-3.8067 14.9138,-2.0901 21.4767,4.2113 5.1956,4.9886 6.4237,8.254 2.1656,5.7578 z m -106.5659,-1.4212 c -5.1767,-3.4991 -14.7963,-4.3285 -23.4318,-2.0202 -2.4954,0.667 -2.4945,0.6622 0.5,-2.6005 4.1084,-4.4764 9.9247,-6.9682 16.3269,-6.9946 4.5698,-0.019 5.7424,0.3935 8.25,2.9011 3.0988,3.0988 3.8165,7.0905 1.6049,8.926 -0.9642,0.8002 -1.8369,0.7433 -3.25,-0.2118 z"
           style="fill:#7c5322;fill-opacity:1"
           id="path1-6" />
        <path
           d="m 1247.963,1987.577 c -5.4619,0.075 -15.3312,-4.0288 -18.2734,-9.2638 -5.1999,-9.2519 -4.2904,-25.6198 4.0473,-33.0311 11.9536,-10.6253 16.5797,-9.8316 25.3101,-6.58 12.208,4.5469 13.2864,19.4056 9.8251,28.5093 m -10.0387,-9.7426 c 1.35,-1.35 -0.3103,-10.5455 -3.0656,-10.5455 -3.0249,0 -7.1153,3.4113 -7.9161,6.6018 -1.4743,5.8744 6.2699,8.6554 10.9817,3.9437 z"
           style="fill:#433014;fill-opacity:1"
           id="path1-52"
           sodipodi:nodetypes="cssscssss" />
        <path
           style="fill:#e2e3db;fill-opacity:1;stroke-width:0.219366"
           d="m 1368.7555,1963.66 c -1.6841,-0.8969 -2.7926,-4.0838 -2.3159,-6.6469 0.3544,-1.9056 1.2006,-3.3679 2.6497,-4.8233 2.3243,-2.3342 4.3072,-2.6681 5.9253,-1.05 1.5377,1.5376 2.1524,2.725 2.1524,5.3525 0,2.1126 -0.2265,2.5972 -0.8065,3.7038 -0.9652,1.843 -1.8678,2.7817 -3.113,3.4022 -1.3872,0.6913 -3.3749,0.6566 -4.492,0.062 z"
           id="path10"
           sodipodi:nodetypes="ssssscss" />
        <path
           style="fill:#e2e3db;fill-opacity:1;stroke-width:0.219366"
           d="m 1251.0636,1959.6448 c -1.2602,-0.4811 -2.4604,-1.6008 -2.9806,-2.6205 -0.6221,-1.2193 -0.6283,-3.4251 0.1351,-4.9412 1.1207,-2.2256 4.2214,-4.5612 6.5713,-5.0883 0.9934,-0.2229 1.5723,-0.056 2.0803,0.2771 1.3751,0.901 2.9011,6.6809 2.5307,9.1508 -0.1804,1.203 -1.1207,1.9911 -2.913,2.8712 -1.4568,0.7154 -4.0805,0.8637 -5.4238,0.3509 z"
           id="path11"
           sodipodi:nodetypes="ssssssss" />
        <path
           style="fill:#66421c;fill-opacity:1;stroke-width:0.155115"
           d="m 1291.4448,1981.0741 c -0.9674,-0.037 -1.5297,-0.7057 -1.7804,-1.3055 -1.1406,-2.73 1.9559,-4.9055 6.1407,-4.43 2.646,0.3006 5.3626,1.49 7.0235,3.2466 0.8233,0.8707 1.1479,1.4946 0.6976,1.6753 -0.3959,0.1588 -7.2887,0.7464 -9.842,0.8523 -0.7915,0.1508 -1.5168,-0.011 -2.2394,-0.039 z"
           id="path12"
           sodipodi:nodetypes="sssssss" />
        <path
           style="fill:#9e4023;fill-opacity:1"
           d="m 1293.3885,2021.1287 c -8.7747,7.5133 -9.9069,8.7532 -9.9069,8.7532 0,0 9.1038,-3.0602 8.9126,10.5496 -0.042,2.9733 4.5149,0.6466 3.7884,-2.7858 -2.0029,-9.462 6.1338,-7.944 5.6709,-8.2575 -1.5499,-1.0495 -8.465,-8.2595 -8.465,-8.2595 z"
           id="path22"
           sodipodi:nodetypes="ccsssc" />
      </g>
      <path
         style="fill:#37260d;fill-opacity:1;stroke-width:0.264583"
         d="m 93.023316,153.00654 c -0.77917,-0.21818 -1.75218,-0.63558 -2.1622,-0.92755 -1.01177,-0.72044 -1.70003,-2.58099 -1.47508,-3.98762 0.18462,-1.15459 0.84246,-2.63556 1.30225,-2.93177 0.15153,-0.0976 -0.19251,-0.24706 -0.76454,-0.33215 -4.17108,-0.6204 -5.9808,-1.19063 -8.39798,-2.64618 l -1.50524,-0.90641 -0.15999,0.70821 c -0.9856,4.36219 -2.59755,7.09081 -4.87543,8.25288 -1.68328,0.85876 -4.29823,1.32554 -6.5418,1.16777 -4.274683,-0.30062 -5.884117,-1.21074 -6.426433,-3.63405 -0.426905,-1.9077 -0.02715,-3.19821 1.674442,-5.40528 l 1.379908,-1.7898 -0.0481,-4.23334 c -0.05334,-4.69363 -0.326576,-6.84752 -1.292067,-10.18542 -1.116779,-3.86083 -1.70254,-7.4975 -1.70254,-10.57011 v -2.8693 l -2.71915,-2.73965 c -1.805781,-1.81941 -3.007783,-3.28946 -3.578383,-4.3764 -2.378102,-4.53011 -2.577756,-10.701525 -0.592746,-18.321155 0.281701,-1.08143 0.461459,-2.04832 0.399467,-2.14865 -0.06202,-0.10033 -0.442647,-0.25046 -0.845872,-0.33362 -1.280081,-0.26402 -3.221408,-1.71119 -4.054502,-3.02244 -0.440399,-0.69318 -1.115854,-2.27237 -1.501008,-3.5093 -0.579093,-1.85975 -0.703183,-2.7755 -0.717047,-5.29166 -0.01588,-2.86846 0.02866,-3.13362 0.776949,-4.63019 1.155594,-2.3111 2.295102,-3.0513 6.957351,-4.51937 2.510208,-0.79042 5.33699,-1.94265 7.967318,-3.24765 4.076723,-2.02259 4.076723,-2.02259 6.217703,-2.01602 1.66984,0.005 2.40861,0.13697 3.35728,0.59933 l 1.21631,0.59277 2.88473,-0.72191 c 2.68417,-0.67173 3.27104,-0.72192 8.44097,-0.72171 6.73368,0 10.969022,0.61439 15.674394,2.27277 l 1.65147,0.58206 0.60079,-0.56441 c 1.02616,-0.96403 3.05099,-1.70349 4.70734,-1.7191 1.71061,-0.0161 3.54943,0.73686 5.57532,2.28303 1.51874,1.15912 2.90402,1.85153 5.14692,2.5726 3.26588,1.04997 6.04022,2.36389 7.03746,3.33293 0.5339,0.51885 1.30331,1.67272 1.70979,2.56421 0.62781,1.37687 0.73393,1.9395 0.70498,3.73753 -0.0663,4.12232 -2.12333,8.58975 -5.49092,11.92514 l -1.88905,1.87098 0.22995,2.62694 c 0.12648,1.44484 0.16336,4.01984 0.082,5.72225 l -0.14801,3.09531 0.93255,1.789115 c 1.17327,2.25097 1.36139,2.45321 3.94779,4.24431 1.16885,0.80947 2.51037,1.83489 2.98114,2.2787 0.47075,0.44381 0.89543,0.75554 0.94375,0.69273 0.0483,-0.0628 0.42018,-0.78589 0.82642,-1.60684 0.91488,-1.84875 2.99323,-3.9238 4.9145,-4.90667 1.26762,-0.6485 1.74514,-0.74282 3.70417,-0.73176 3.14108,0.0177 4.90815,0.74181 7.01519,2.87457 3.37942,3.42071 4.8477,8.92762 3.72536,13.97227 -1.01124,4.54538 -3.30327,7.6477 -7.10914,9.62247 l -2.05716,1.06739 -0.0903,4.08469 c -0.103,4.65992 -0.61253,7.08932 -2.13304,10.17008 -2.35387,4.76927 -7.3783,7.6164 -15.88736,9.00263 -4.34848,0.70845 -9.37455,0.36253 -11.09305,-0.76348 -1.06728,-0.6993 -1.73712,-1.98811 -1.73821,-3.34436 v -1.19063 l -1.60263,0.1323 -1.60264,0.13229 -0.63489,1.5658 c -0.81428,2.00827 -2.43713,3.66297 -4.62658,4.71744 -1.57078,0.7565 -1.98343,0.83524 -4.762492,0.90871 -2.11662,0.056 -3.473882,-0.0403 -4.459372,-0.31625 z m 8.428104,-2.12699 c 1.50765,-0.76028 2.66396,-1.98548 3.55227,-3.76399 0.84791,-1.69756 2.29214,-6.62993 3.33378,-11.38573 0.46564,-2.12593 1.06286,-4.05945 1.50675,-4.87826 l 0.73533,-1.35644 0.0804,1.23402 c 0.16317,2.50484 -1.16142,10.22617 -2.23362,13.02028 -0.12451,0.32443 0.12727,0.30771 1.35912,0.39703 2.76656,0.20064 3.90533,-1.61975 6.02202,-2.10973 1.82515,-0.6223 4.01857,0.0683 4.25402,0.45617 0.0662,0.10914 -0.43272,0.21224 -1.10887,0.2291 -3.57079,0.0891 -6.73756,1.81919 -6.73756,4.2605 0,0.19736 -0.0314,1.16869 0.35505,0.80894 0.57689,-0.53705 2.11246,-2.95878 2.39791,-2.75174 0.27197,0.19722 -1.53066,2.60495 -1.48505,3.62582 0.0307,0.68649 1.3992,0.54726 1.71807,0.62373 0.25072,0.0601 0.022,-0.70229 0.36108,-1.87497 0.28765,-0.99502 0.91247,-1.91548 1.16663,-1.88717 0.31101,0.0347 -0.13359,1.22484 -0.24236,1.73731 -0.20656,0.97321 -0.15113,2.12098 0.58576,2.38072 2.75331,0.97046 8.31379,-0.58153 11.15989,-1.53506 7.61576,-2.55154 10.27792,-5.97323 11.10824,-14.27769 0.38041,-3.80481 0.0723,-6.73171 -1.08678,-10.32335 -2.14638,-6.65115 -6.38424,-12.38477 -12.64928,-17.11399 -2.12384,-1.60319 -3.32819,-2.72388 -3.9765,-3.70033 l -0.92996,-1.40062 -0.74525,1.5758 c -0.75232,1.59078 -2.98013,3.79204 -3.28163,3.04435 1.0967,-1.40867 2.33,-5.38951 2.66772,-7.222915 0.48442,-2.09114 0.59669,-6.39244 0.24109,-9.23843 -0.1746,-1.3974 -0.17511,-1.39803 -1.13044,-1.39803 -2.0806,0 -5.11259,-2.35739 -6.90205,-5.36642 -1.00296,-1.68645 -2.12466,-4.87651 -2.81125,-7.99504 -0.57052,-2.59131 -0.79015,-3.03676 -3.10322,-6.29449 -1.01158,-1.42468 -2.07028,-3.11269 -2.3527,-3.75116 -0.6137,-1.38737 -1.47016,-1.95723 -4.342122,-2.88909 -2.91103,-0.94451 -6.656492,-1.4854 -11.509382,-1.66206 -8.18689,-0.29805 -14.76766,1.62589 -18.95292,5.54101 -6.229164,5.82708 -12.789561,21.74139 -12.795673,31.04002 -0.0026,2.47509 0.690404,5.488195 1.733074,7.545835 0.716042,1.41301 2.922588,3.73502 6.823842,7.18087 1.112071,0.98227 1.744769,1.68723 1.808401,1.78594 0.841507,1.30538 -0.204867,0.94393 -0.496253,0.81584 -0.319325,-0.15925 -0.653785,-0.40793 -0.743241,-0.55268 -0.08943,-0.14473 -0.304429,-0.26332 -0.477758,-0.2635 -0.236458,0 -0.274055,0.9077 -0.150601,3.63802 0.172562,3.81651 0.299562,4.55644 1.555327,9.06232 0.979302,3.51385 1.35763,6.60945 1.348423,11.03299 -0.0079,3.75293 -0.280803,4.89945 -1.467803,6.16493 -1.11498,1.18869 -1.730719,2.47385 -1.731751,3.6145 0,0.90522 0.143748,1.22274 0.813065,1.78593 0.06562,0.0552 0.720169,0.51507 1.03886,0.028 0.290962,-0.44463 0.270536,-1.42512 0.570071,-2.20017 0.346393,-0.89622 1.003247,-1.56172 1.173377,-1.51521 0.28199,0.0771 -0.105175,1.1725 -0.300093,1.73019 -0.261303,0.74755 -0.364014,1.75178 -0.08112,2.39093 0.289004,0.65299 2.173923,0.44313 2.708303,0.42254 0.19044,-0.007 0.187,-4.12244 0.36711,-4.13276 1.25767,-0.072 -0.18482,3.89763 0.66751,4.04995 2.28775,0.40888 5.80369,-3.00654 6.80445,-6.99675 l 0.56547,-2.25451 -1.68362,-1.57769 c -2.65608,-2.48891 -5.09217,-6.68954 -4.58272,-7.19897 4.7902,5.49704 10.60693,10.39979 18.17912,11.7547 1.44857,0.22942 2.67873,0.37216 2.73368,0.31721 0.055,-0.055 0.18306,-2.41845 0.28464,-5.25217 0.17886,-4.99009 0.36343,-6.34283 0.86545,-6.34283 1.118052,0 1.159542,10.86888 0.0494,12.94318 -0.14525,0.27141 -0.65375,0.81873 -1.12998,1.21624 -1.14485,0.95562 -1.50661,1.63732 -1.51794,2.86041 -0.007,0.77383 0.17296,1.19488 0.76401,1.78594 1.0364,1.03637 1.34329,0.97464 1.34329,-0.27017 0,-0.75673 1.15194,-3.3596 1.198802,-2.62752 l 0.0597,0.93355 c -1.033562,3.48218 1.13054,3.21636 3.23938,3.07647 0.0941,-0.006 -0.25517,-0.64264 -0.12007,-1.36408 0.21579,-1.15242 0.92456,-2.58943 1.04685,-2.53125 0.16349,0.0778 -0.007,1.49135 -0.0444,1.6817 -0.18523,0.93067 -0.2676,1.43946 0.31689,2.03094 0.66853,0.67654 2.253852,-0.4313 2.240302,-0.5669 z m 18.72121,-9.34421 c 5.23033,4.19595 2.39405,4.78682 -3.12225,-1.15919 -1.19168,-1.2845 -1.79495,-2.59466 -2.12153,-4.60735 -0.72091,-4.44286 2.89795,-11.83619 7.24728,-11.9176 0.52792,-0.01 0.87061,-0.19926 0.58608,-0.0153 -1.57406,1.01772 -3.36513,3.05028 -4.33477,4.91922 -2.12315,4.07154 -2.37763,8.94993 1.08497,12.25058 z M 75.418206,116.06843 c -2.17755,-0.67895 -4.55557,-3.64646 -4.56941,-5.69346 -0.004,-0.54105 -0.12327,-0.82363 -0.34719,-0.82363 -0.19573,0 -0.53985,-0.19563 -0.8565,-0.42759 -0.36706,-0.26889 -0.78733,-0.44265 -1.40108,-0.5089 -2.382863,-0.2572 -4.038652,-1.2438 -5.154982,-3.70096 -0.958982,-2.11074 -0.727313,-4.4482 0.481886,-6.891685 0.52832,-1.06762 1.174273,-2.29206 1.441476,-2.6415 2.87274,-3.75671 3.38045,-3.44024 6.36082,-6.28322 0.8191,-1.04129 3.55799,-2.50513 5.30029,-3.04739 1.93477,-0.60216 3.71258,-0.64196 5.59433,-0.0832 1.96974,0.58486 3.65863,1.70794 6.96822,4.8822 3.37484,3.23683 5.836132,4.68299 6.859672,6.1079 2.80683,3.874695 1.78488,9.806605 -2.422552,13.992075 -2.88015,2.86512 -5.73776,4.00341 -9.45452,3.95986 -1.45118,-0.0169 -2.39405,0.30051 -2.87914,0.50551 -0.74639,0.31541 -3.26271,1.03968 -4.07966,1.01288 -0.29684,-0.01 -1.2014,-0.15925 -1.84166,-0.35888 z m 4.48463,-2.20594 c 1.03672,-0.43317 3.45051,-2.77 4.14332,-4.01124 l 0.45414,-0.81357 -2.04164,-1.0247 c -1.33085,-0.66797 -2.57646,-1.56477 -3.57801,-2.57606 l -1.53641,-1.55136 -1.27026,1.18819 c -0.69866,0.65352 -1.77956,1.44801 -2.402,1.76556 l -1.13172,0.57735 0.17184,1.84883 c 0.23826,2.56368 1.1026,4.00486 2.8103,4.68582 0.992,0.39555 3.33484,0.34806 4.38044,-0.0888 z m 14.40484,-7.41915 c 0.36113,-0.22789 1.113822,-1.94025 1.198672,-3.8353 0.14161,-3.163225 -1.129872,-4.868995 -8.437062,-11.318745 -3.1048,-2.74047 -3.8917,-3.30176 -5.13646,-3.66361 -3.4971,-1.01663 -6.93647,0.35682 -11.17306,4.46178 -2.45414,2.37789 -3.955972,4.30763 -5.084658,6.53341 -1.569799,3.095685 -1.087464,6.153895 1.153372,7.312665 1.274396,0.65902 3.088876,0.56412 4.813436,-0.25173 0.0495,-0.0235 3.71334,-1.9804 4.50926,-4.22029 0.21569,-0.60698 0.45514,-1.902355 0.53211,-2.878615 l 0.13996,-1.77501 -1.37575,-0.73853 c -1.51776,-0.81476 -2.09481,-1.6982 -2.09481,-3.20699 -0.0188,-1.83615 1.85248,-2.17987 3.23876,-2.59202 1.73725,-0.59851 4.00397,-0.27461 5.15586,0.73679 1.21523,1.06698 1.59191,2.27618 1.08614,3.48668 -0.48186,1.15324 -1.25318,1.65354 -2.91005,1.88748 l -1.28744,0.18177 0.10671,2.43967 c 0.0904,2.067565 0.2173,2.628375 0.83175,3.676845 1.27838,2.18141 4.30545,4.07836 6.94229,4.35051 0.94343,-0.25238 2.31397,-0.0981 3.07867,-0.29278 1.17938,-0.31277 4.82322,-3.37082 4.4914,-3.76936 -0.0968,-0.11624 0.0324,-0.0519 0.28705,0.14306 0.975392,0.74657 0.396642,2.48134 -1.35612,4.06484 -1.60314,1.44833 -2.59133,1.85732 -4.80491,1.98872 l -1.99388,0.11832 -0.49588,1.19893 c -0.27273,0.65942 -0.84548,1.59711 -1.27275,2.08375 l -0.7769,0.88482 0.85797,-0.0999 c 4.14014,-1.34485 6.42387,-3.34481 9.77632,-6.90716 z M 79.954036,93.095235 c 0.28943,-0.0585 -0.0682,-0.50776 -0.70228,-0.88236 -1.43301,-0.84651 -3.25946,-0.35626 -2.83115,0.75994 0.13528,0.35253 0.45138,0.4015 1.81554,0.28133 0.90848,-0.08 1.68151,-0.15155 1.71789,-0.15891 z m 65.497174,29.827885 c 2.0125,-1.98617 2.93902,-4.01698 3.3541,-7.35166 0.3665,-2.94428 -0.0228,-5.45504 -1.22712,-7.91683 -1.88028,-3.84316 -6.15741,-6.05219 -9.67665,-4.9978 -1.44336,0.43244 -3.59003,2.43311 -4.341,4.04572 -0.97983,2.10415 -0.85751,2.76545 0.93097,5.0337 0.85508,1.08442 2.01594,2.69152 2.57968,3.57129 1.16285,1.81467 1.83158,2.13259 3.15667,1.50069 1.29595,-0.61799 1.77879,-1.50299 1.64544,-3.01593 -0.0613,-0.69496 -0.21344,-1.49691 -0.30742,-1.79271 -0.62687,-1.97342 0.34399,-1.73673 1.18142,-0.91491 0.40664,0.39905 0.83434,2.47346 0.68345,3.7477 -0.26821,2.26454 -1.93763,4.17525 -3.65012,4.17769 h -0.69686 l 0.60278,1.52135 c 0.33152,0.83675 0.81875,2.37847 1.0827,3.42609 l 0.47993,1.90474 1.33395,-0.71303 c 0.73366,-0.39214 2.0243,-1.39435 2.86808,-2.22708 z M 119.51773,85.312785 c 1.80308,-0.76404 6.17977,-6.31487 6.80246,-8.6274 0.72311,-2.68545 0.4503,-5.553 -0.69455,-7.30026 -0.65789,-1.00406 -2.53315,-2.19244 -4.53766,-2.87554 -2.67917,-0.91302 -4.54327,-1.74069 -6.01051,-2.66864 -1.22582,-0.77526 -2.04888,-1.26156 -4.30753,-2.54503 -1.75048,-0.9947 -3.96877,-0.44209 -6.15542,1.53342 -0.61206,0.55295 -1.04643,1.18571 -1.04643,1.52437 0,0.53451 1.21838,2.44906 2.96902,4.66548 0.57002,0.7217 1.01177,1.04087 0.59524,0.7883 -0.54923,-0.33301 -0.80899,-1.1743 -2.54728,-3.16616 -0.21378,-0.24498 -0.89284,-1.37155 -1.07733,-2.17776 -0.0847,-0.37031 0.11806,-0.73025 0.19206,-0.80423 0.23506,-0.23508 2.71759,2.16948 3.38503,2.48777 1.49439,0.7126 2.50071,3.06536 4.67386,10.92748 0.13687,0.49517 2.05402,7.19442 5.88904,8.30051 0.47813,0.1379 0.90292,0.26146 0.94396,0.27458 0.0411,0.0132 0.45778,-0.13848 0.92604,-0.33689 z m -62.505557,-4.16436 c 0.722842,-2.28468 3.774864,-8.45169 5.455523,-11.0236 1.847295,-2.82694 5.0964,-6.12397 7.79886,-7.91395 l 2.02033,-1.33816 -1.4243,-0.34168 c -1.73538,-0.4163 -2.70889,-0.17727 -4.998195,1.22716 -2.529602,1.55186 -4.294823,2.34993 -7.407751,3.34907 -5.697009,1.82851 -5.963312,1.98049 -7.0612,4.02979 -0.650108,1.21354 -0.867357,4.32602 -0.469583,6.72825 0.269743,1.62893 1.889152,4.96422 2.704227,5.56945 1.028621,0.7638 2.181913,1.33747 2.546906,1.26688 0.2014,-0.0389 0.577215,-0.7379 0.835183,-1.55321 z"
         id="path2"
         sodipodi:nodetypes="cssssscssssscssscssssssssssssscssscsssssssscsscsssssssssscssssscccsssccsssscsssssssssssssssssssscsssssssssssssssssssssssssssssssssscsssssssssssscssssssssssssssssssssssssssssssssssscsscsscssssssssssssscsssssscsssssssscsscssssssscsssssssssssccsscsccssssssssssssssssssssscssssssss" />
    </g>
  </g>
</svg>
