<?xml version="1.0" encoding="UTF-8" standalone="no"?>
<!-- Created with Inkscape (http://www.inkscape.org/) -->

<svg
   width="52.267986mm"
   height="52.060341mm"
   viewBox="0 0 52.267986 52.060341"
   version="1.1"
   id="svg1"
   inkscape:version="1.4.2 (f4327f4, 2025-05-13)"
   sodipodi:docname="pug.svg"
   xmlns:inkscape="http://www.inkscape.org/namespaces/inkscape"
   xmlns:sodipodi="http://sodipodi.sourceforge.net/DTD/sodipodi-0.dtd"
   xmlns="http://www.w3.org/2000/svg"
   xmlns:svg="http://www.w3.org/2000/svg">
  <sodipodi:namedview
     id="namedview1"
     pagecolor="#505050"
     bordercolor="#eeeeee"
     borderopacity="1"
     inkscape:showpageshadow="0"
     inkscape:pageopacity="0"
     inkscape:pagecheckerboard="0"
     inkscape:deskcolor="#505050"
     inkscape:document-units="mm"
     inkscape:zoom="0.36756309"
     inkscape:cx="598.5367"
     inkscape:cy="9.5221747"
     inkscape:window-width="1920"
     inkscape:window-height="1009"
     inkscape:window-x="2552"
     inkscape:window-y="-8"
     inkscape:window-maximized="1"
     inkscape:current-layer="layer1" />
  <defs
     id="defs1" />
  <g
     inkscape:label="Calque 1"
     inkscape:groupmode="layer"
     id="layer1"
     transform="translate(-30.956234,-142.34582)">
    <g
       id="g23"
       transform="matrix(0.26458333,0,0,0.26458333,-319.94552,-263.7943)">
      <path
         d="m 1419.7018,1730.9188 c -8.2613,-1.4169 -15.0645,-7.329 -17.3987,-15.12 -0.9596,-3.2025 -1.6439,-3.9437 -3.6415,-3.9437 -2.1334,0 -2.4598,0.4537 -2.4598,3.4182 0,4.7971 -0.8235,6.4392 -4.0716,8.1188 -5.5572,2.8738 -22.5644,1.395 -30.4049,-2.6436 -7.7007,-3.9667 -11.651,-8.9536 -14.5689,-18.392 -1.4948,-4.8355 -1.6972,-5.0265 -6.1982,-5.8488 -6.2161,-1.1356 -11.1746,-5.9542 -13.2221,-12.8489 -1.7891,-6.0247 -2.0169,-16.6505 -0.4315,-20.1301 0.8072,-1.7717 6.771,-10.389 10.3729,-12.2126 6.0287,-3.0521 7.9823,-3.0708 13.7876,-0.1318 l 4.6025,2.3302 4.5032,-7.0802 c 2.4767,-3.894 8.343,-11.4266 13.0361,-16.7391 9.5234,-10.7803 8.988,-9.0873 8.6462,-27.341 -0.103,-5.5 0.1191,-10.7945 0.4935,-11.7656 0.4812,-1.248 -0.5041,-3.0511 -3.3611,-6.1506 -6.7863,-7.3622 -8.6469,-11.8884 -8.6667,-21.0838 -0.019,-8.9501 1.5588,-12.5442 6.2814,-14.3047 12.1124,-4.5152 21.5576,-8.5164 26.2012,-11.0996 6.6018,-3.6723 9.615,-3.8437 14.1105,-0.8028 3.3808,2.2869 3.4064,2.2883 9.8895,0.5672 11.7739,-3.1257 29.9476,-1.9083 42.5,2.8469 l 5,1.8941 3.3979,-2.3005 c 5.4313,-3.6773 10.5518,-2.7408 20.1021,3.6765 3.025,2.0326 9.002,5.3573 13.2822,7.3881 5.4974,2.6083 8.3516,4.6286 9.7214,6.881 6.6114,10.8717 -0.1289,29.4257 -12.5578,34.5678 l -2.9458,1.2187 0.341,11.0777 c 0.3325,10.8022 0.2597,11.2433 -2.9249,17.7337 -2.0546,4.1875 -5.6116,9.0082 -9.5909,12.9985 l -6.3252,6.3426 v 10.738 c 0,6.836 -0.7699,14.7059 -2.1187,21.6574 -1.1652,6.0057 -2.3346,14.5885 -2.5986,19.073 -0.4441,7.5446 -0.2742,8.5047 2.2753,12.8551 3.4008,5.803 3.8364,12.292 1.0332,15.3901 -2.637,2.9145 -8.951,4.4148 -16.1681,3.8418 -9.3536,-0.7426 -12.8279,-2.862 -16.3954,-10.0011 -1.6652,-3.3324 -3.0277,-6.887 -3.0277,-7.8992 0,-2.29 0.3467,-2.3257 -6.404,0.6597 -3.1092,1.375 -6.3152,2.5 -7.1245,2.5 -1.9405,0 -1.8605,0.5548 0.5506,3.8159 2.871,3.8834 2.8799,9.5951 0.02,12.6398 -1.9225,2.0463 -10.1921,4.8923 -12.841,4.4192 -0.3854,-0.069 -2.5007,-0.4339 -4.7007,-0.8112 z m 4.0427,-4.9946 c -0.3165,-0.512 -2.6386,-5.5179 -2.0797,-5.8634 0.559,-0.3455 3.537,4.4063 3.537,5.2987 0,1.2279 0.79,1.5462 3.25,1.309 2.5712,-0.2479 2.0405,-0.5954 1.8657,-2.1777 -0.084,-0.7604 -0.7188,-1.6609 -1.1974,-2.6331 -0.2137,-0.4342 -0.5361,-1.2087 -0.5239,-1.4305 0.017,-0.3159 1.1339,0.5157 2.2344,1.679 0.9094,0.9613 1.734,2.2413 2.5725,2.47 0.625,0.1705 1.7987,-1.7485 1.7987,-2.1776 0,-0.6834 -1.3418,-3.2227 -2.9818,-5.643 -2.7588,-4.0714 -2.9828,-5.0736 -2.9945,-13.4005 -0.014,-9.8034 1.4151,-16.9648 3.1686,-15.8811 0.7195,0.4446 0.8981,3.7905 0.531,9.944 -0.3043,5.1006 -0.3149,9.5122 -0.024,9.8036 0.8021,0.8022 13.2954,-4.1175 17.5069,-6.894 2.0388,-1.344 4.411,-2.2647 4.9546,-2.7081 0.9742,-0.7948 6.4899,-8.0578 6.6619,-7.4879 0.2646,0.8765 -5.4759,10.5682 -6.4127,11.7235 -0.9668,1.1923 -0.8415,2.7012 0.6108,7.3549 2.1692,6.951 5.1011,10.3899 9.5737,11.2289 4.7076,0.8832 5.7071,-0.099 3.8182,-3.7516 -1.209,-2.3378 -1.2668,-2.9402 -0.2464,-2.5682 0.1986,0.072 2.8331,3.5224 2.8331,4.736 0,2.3693 3.1464,2.7335 4.9404,0.5718 0.9248,-1.1142 0.8361,-2.1033 -0.4032,-4.5 -0.8737,-1.6895 -1.1428,-3.0718 -0.598,-3.0718 1.3416,0 3.0608,3.3801 3.0608,6.0176 0,2.6252 2.0203,2.16 3.0818,-0.7097 0.5122,-1.3845 0.1409,-3.2223 -1.1008,-5.4485 -5.9652,-10.6951 -6.2126,-14.1222 -2.3721,-32.8594 1.4978,-7.3074 2.7424,-17.2771 2.9962,-24 0.3248,-8.6016 3.0044,-13.4633 1.9146,-12.6102 -5.4063,4.232 -3.7849,2.0123 -1.0469,-2.3427 0.535,-0.8509 3.984,-4.5681 7.6644,-8.2604 9.3716,-9.402 11.2662,-14.5789 10.5348,-28.7867 -0.96,-18.6491 -7.7622,-37.885 -16.497,-46.6514 -5.0761,-5.0945 -14.1345,-10.6189 -21.4678,-13.0923 -4.0088,-1.3521 -8.4291,-1.7486 -19.2072,-1.7227 -12.4666,0.03 -14.5742,0.2894 -19.2429,2.3701 -4.841,2.1574 -5.5383,2.9214 -9.0968,9.9664 -2.1196,4.1965 -4.4067,9.8764 -5.0825,12.6221 -1.5591,6.3352 -8.1307,19.0252 -12.1067,23.3783 -2.5624,2.8055 -3.6017,3.2747 -6.503,2.936 -3.2471,-0.3791 -3.4914,-0.1993 -4.0941,3.0137 -1.0343,5.5129 0.341,15.518 3.0489,22.1824 0.7709,1.897 3.5202,5.2531 4.767,7.1298 2.7361,4.1184 0.8978,7.0051 -2.5848,1.3141 -0.1749,-0.2858 -1.8131,-2.893 -2.0085,-3.2156 -0.8571,-1.4156 -1.8036,-3.1468 -4.3037,-2.9076 -1.6903,0.1617 -1.6939,3.7209 -2.9526,5.3484 -2.0392,2.6366 -5.3942,6.809 -7.5108,9.2299 -7.2984,8.3473 -16.4635,23.5078 -21.6654,35.8377 -4.6059,10.917 -4.6749,27.4188 -0.1518,36.2848 3.9332,7.7097 14.0813,13.0583 25.3183,13.3443 5.0135,0.1276 5.1682,0.049 5.13,-2.6184 -0.053,-3.6793 1.5578,-3.5311 2.1894,0.25 0.1212,0.7256 -0.1816,1.5275 0.3051,1.9967 0.9463,0.9122 2.7061,0.98 3.2809,0.033 0.4542,-0.7482 -0.4282,-3.0099 -0.3219,-4.3388 0.043,-0.5324 0.539,-0.3574 0.7389,-0.017 0.4032,0.6857 1.8337,4.4282 2.153,4.2647 3.5945,-1.84 2.5779,-10.9686 -6.7532,-10.2339 -0.448,0.035 -16.8165,5.7937 -8.2728,-0.6927 0.6332,-0.4807 4.4428,-0.01 5.5763,-0.5739 0.1527,-0.076 5.5229,-0.2426 6.6853,-3.7012 1.1772,-3.5025 3.3691,-5.5482 -0.798,-14.512 -1.0022,-2.1558 -3.4201,-5.4783 -5.5323,-7.2895 -4.0822,-3.5003 -9.1585,-5.0939 -8.4849,-5.1942 0.2682,-0.04 -0.8366,-2.6809 1.8342,-1.7247 3.6838,1.3189 12.7897,6.2304 14.8597,10.1174 1.9286,3.6216 3.7147,7.6102 3.6879,11.5161 -0.032,4.5883 -3.189,9.3536 -2.1672,9.3506 3.6074,-0.01 6.559,-0.2865 6.559,-0.6367 0,-0.3502 -0.931,-6.2197 -2.0689,-13.0433 -1.1379,-6.8236 -1.8635,-12.9496 -1.6126,-13.6133 0.7707,-2.0379 4.3999,7.3477 6.107,15.7933 0.8893,4.4 2.0737,10.25 2.632,13 1.6308,8.0329 4.6292,13.1983 9.2794,15.9857 4.0079,2.4024 10.3905,3.5002 9.2058,1.5834 z m 18.4573,-86.2017 c -10.9937,-4.2508 -18,-11.5309 -18,-18.7034 0,-5.2224 1.8205,-8.2228 10.2855,-16.9519 16.1749,-16.6794 26.9654,-17.5151 40.1249,-3.1074 9.9882,10.9356 12.5233,19.039 8.6353,27.6032 -1.7019,3.7491 -2.8718,4.6737 -10.728,8.4791 -7.8098,3.7829 -9.7322,4.3018 -16.8177,4.5391 -6.2357,0.2088 -9.213,-0.2011 -13.5,-1.8587 z m 24.3366,-4.1684 2.7188,-1.7814 -3.2777,-2.6987 c -1.8028,-1.4843 -3.8934,-3.5302 -4.6458,-4.5465 -1.2969,-1.7515 -1.5572,-1.6666 -5,1.6298 -4.2114,4.0322 -9.0862,6.6978 -12.2489,6.6978 -1.219,0 -1.9392,0.2772 -1.6004,0.6159 2.7696,2.7697 19.8636,2.8288 24.054,0.083 z m -21.7434,-5.7344 c 2.9786,-1.1325 9.3469,-6.3336 10.8586,-8.8685 0.5235,-0.8779 1.2278,-3.7135 1.565,-6.3014 0.5752,-4.4139 0.4471,-4.7741 -2.0682,-5.8159 -3.5113,-1.4545 -5.7402,-5.5003 -4.2936,-7.7939 1.1391,-1.8062 9.5038,-2.8638 13.908,-1.7584 5.4251,1.3616 5.1323,9.0844 -0.3862,10.1882 -2.5354,0.507 -2.8739,1.0214 -3.0133,4.5785 -0.1681,4.2905 1.9001,8.0654 7.1536,13.0568 5.2028,4.9433 10.3252,3.0075 12.2411,-4.6261 0.9877,-3.9352 -4.4081,-14.4847 -10.7258,-20.9704 -9.9201,-10.1838 -17.648,-9.881 -29.0627,1.139 -9.5244,9.195 -12.8738,14.4533 -12.1594,19.0892 0.7087,4.5372 5.8926,7.263 12.0746,9.068 0.6517,0.029 2.4104,-0.4135 3.9083,-0.983 z m 15.6607,-25.4896 c 0.057,-0.5362 -0.6501,-1.1202 -1.5715,-1.2976 -1.1873,-0.2287 -1.4949,0.1479 -1.0557,1.2922 0.6475,1.6874 2.4475,1.6911 2.6272,0.01 z m -115.7818,77.2529 c -3.8909,-2.1015 -6.3981,-4.2325 -6.1228,-8.448 0.025,-0.3879 0.2929,-2.6785 0.6716,-3.5327 0.5913,-1.3339 2.5867,-1.4651 2.6281,-1.4308 0.046,0.038 1.0777,0.1587 0.628,0.6666 -2.871,3.2429 -1.8871,7.0965 -1.4267,7.3896 4.3855,2.7918 4.6711,4.2624 7.7348,-4.6438 1.1784,-3.4258 2.7664,-7.7305 3.5287,-9.566 1.3019,-3.1344 1.2427,-3.4534 -0.9746,-5.25 -3.0305,-2.4554 -8.7322,-2.4584 -12.7527,-0.01 -1.7344,1.0576 -4.1169,3.9712 -5.3786,6.5776 -1.8897,3.9037 -2.1841,5.8096 -1.7768,11.5026 0.6034,8.434 3.2162,13.0348 9.0433,15.9243 l 4.2256,2.0954 0.6727,-5.253 c 0.5069,-3.9583 0.3343,-5.4432 -0.7006,-6.025 z m 50.2687,-96.1627 c 3.7022,-3.1152 8.9333,-13.4075 10.7309,-21.1132 1.2209,-5.2332 6.6561,-15.9792 9.5416,-18.8647 1.6881,-1.6881 1.0982,-3.0491 -1.8962,-4.3745 -3.2125,-1.422 -2.8944,-1.5149 -16.9652,4.9514 -5.9284,2.5249 -11.832,4.6178 -17.0752,8.4253 -2.7215,2.29 -3.0767,3.1996 -3.0767,7.8779 0,2.9089 0.7192,7.0314 1.5983,9.1611 2.2877,5.5423 11.1349,16.3721 12.9993,16.3721 0.6869,0 2.5514,-1.0959 4.1432,-2.4354 z m 117.2071,-3.4915 c 3.2247,-4.5286 5.0771,-9.6538 5.2945,-14.6486 0.1742,-4.0028 -0.2077,-4.9098 -3.2726,-7.7731 -1.9084,-1.7828 -4.9378,-3.8405 -6.7319,-4.5727 -1.7942,-0.7322 -6.8966,-3.7225 -11.3389,-6.6451 -8.8195,-5.8024 -12.2223,-6.782 -15.7644,-4.538 -1.0339,0.6551 0.3008,2.5321 5.5,7.7347 8.7993,8.8049 13.6603,17.8059 17.349,32.1248 l 1.0962,4.255 2.8812,-1.49 c 1.5847,-0.8194 3.8288,-2.8206 4.9869,-4.447 z"
         style="fill:#342509;fill-opacity:1"
         id="path1"
         sodipodi:nodetypes="cssssssssssscssssssssssscssssscssscssssssssssssscccssssssssssssscsssssssssssssssssssssssssssssssssssssssssssssccsssssssssccssssssccssssssssccsssscsccssssssssssscccccsscccsssssssscssscsccssssccsssssssssssscss" />
      <path
         style="fill:#e6b96b;fill-opacity:1;stroke-width:0.877464"
         d="m 1417.0945,1725.5906 c -4.1302,-1.7645 -8.3181,-4.7835 -10.2678,-11.0555 -0.6894,-2.2178 -2.0392,-8.2447 -3.0468,-13.0707 -2.2392,-10.7251 -4.7039,-19.6531 -6.3276,-21.3743 -1.0433,-1.106 -0.8677,-0.9994 -0.8561,1.9947 0.01,1.9132 1.3176,8.1524 1.9638,13.855 l 1.851,10.4207 -1.3819,0.2501 -2.2874,0.2139 -3.3211,0.094 0.034,-0.827 0.465,-1.1721 1.0541,-3.257 c 1.2207,-3.7717 0.468,-7.3801 -0.7816,-10.7069 -1.9498,-5.1908 -6.0957,-9.7406 -13.4273,-13.4991 -6.2806,-3.2197 -7.1466,-1.0389 -1.0466,2.5359 1.9313,1.1318 4.0407,2.3853 5.5384,3.9724 4.3212,4.5793 7.2248,10.9466 6.6477,16.067 -0.4057,3.5999 -1.7189,6.4044 -4.6231,7.5519 -1.2905,0.5098 -3.214,0.7656 -5.0289,1.0119 -4.1938,0.5692 -5.3882,1.012 -5.9844,1.8681 -0.1746,0.2507 -0.3572,0.521 -0.3572,0.9296 0,0.8627 0.5984,0.4926 1.8021,0.3392 1.0613,-0.1354 3.3739,-0.7894 6.1569,-1.5985 5.8554,-1.7022 8.9891,-0.066 10.6296,3.8944 0.8697,2.0996 0.1479,5.449 -0.7864,5.6763 -0.253,0.062 -0.8059,0.2802 -1.054,-0.2911 -0.263,-0.6054 -0.9199,-2.0126 -1.1971,-2.5617 -1.008,-1.9964 -1.6163,-2.2058 -0.9404,0.8717 0.4419,2.0119 -0.174,2.8755 -1.1799,2.8755 -0.355,0 -1.8475,-0.064 -2.2155,-0.5699 -0.4085,-0.5616 -0.2129,-1.7827 -0.386,-2.5708 -0.7224,-3.2889 -1.6235,-3.2049 -2.1651,-0.039 l 0.1721,1.8203 -0.6362,0.9722 -7.198,0.1263 c -12.1527,0.2131 -21.5517,-8.1247 -24.4136,-17.7616 -0.875,-2.9461 -2.1184,-8.8036 -2.0862,-14.3158 0.025,-4.2165 0.5513,-8.8573 1.1619,-11.3946 2.5612,-10.6441 13.5437,-29.1037 25.2093,-43.5714 4.2449,-5.2646 7.73,-9.4306 7.73,-10.03 0,-0.9192 0.6337,-2.8463 1.6255,-3.2731 0.6639,-0.2857 2.4264,0.3019 2.861,0.5936 0.4983,0.3344 1.9635,2.6242 3.5233,4.9166 1.5598,2.2923 2.7511,3.8554 3.182,3.8554 1.1668,0 1.0894,-0.9295 0.6494,-2.2672 -0.3409,-1.0364 -1.1059,-1.9243 -2.3712,-3.9742 -0.9584,-1.5527 -2.4019,-3.2973 -3.3059,-5.0803 -0.7451,-1.4695 -1.0083,-3.0302 -1.3373,-3.9627 -1.5658,-4.438 -2.708,-15.6434 -1.8905,-18.9002 0.2556,-1.0187 0.5879,-2.5239 1.3403,-2.8045 0.7089,-0.2645 1.9888,0.1981 3.4077,0.1981 2.823,0 3.5842,-0.3204 6.1351,-3.144 4.2619,-4.7174 8.4345,-13.1338 11.6794,-22.4492 0.5385,-1.5459 0.9719,-3.4507 1.6689,-5.3149 1.2616,-3.3736 2.8891,-6.7917 4.038,-8.9676 2.8632,-5.4225 4.3024,-7.8583 8.8868,-9.2246 l 4.7819,-1.4251 3.0768,-0.4921 11.237,-0.5637 10.6921,0.3982 6.8038,1.0429 7.7235,2.8811 c 14.5025,5.4098 20.8113,14.5779 26.2184,28.9573 3.6917,9.8177 5.9388,21.5144 6.0391,32.3269 0.072,7.7327 -0.3226,10.1874 -2.3372,14.4404 -1.2988,2.742 -5.2863,7.9309 -9.3027,12.2658 -7.1088,7.6724 -10.0626,11.685 -8.944,11.066 0.6437,-0.3562 1.463,-0.7533 2.1622,-1.4676 2.0552,-2.0995 1.446,-0.051 0.8453,1.5175 -0.3696,0.9652 -1.2154,7.1164 -1.9101,13.9969 -0.6948,6.8804 -1.6827,15.9209 -2.4115,19.6578 -2.7263,13.9797 -3.6161,18.7332 -2.1918,24.2072 0.7318,2.8126 2.498,6.265 3.4386,7.861 0.9805,1.6635 2.1189,4.1028 2.0222,6.0774 -0.079,1.607 -1.2367,2.8987 -1.8444,3.2743 -0.1944,0.1202 -0.921,0.3118 -1.227,-0.174 -0.3704,-0.588 -0.2036,-1.9826 -0.488,-2.8487 -0.8441,-2.5701 -1.9331,-4.9075 -2.9046,-4.3337 -0.3588,0.2118 0.4652,1.4164 1.0681,2.871 0.6025,1.4546 0.8876,3.4872 0.6065,4.2198 -0.3852,1.0038 -2.3527,1.9287 -3.6425,1.6802 -0.8901,-0.1714 -1.9141,-0.6617 -1.9141,-1.3501 0,-0.697 -0.6594,-2.4879 -1.772,-3.9501 l -1.5288,-1.5782 0.058,1.0278 c 0.025,0.4401 0.5233,1.0247 0.6688,1.5405 0.2479,0.8792 1.1201,2.1683 0.9193,2.8848 -0.3071,1.0958 -0.7301,1.3536 -2.5018,1.3536 -5.4018,0 -10.1972,-3.9076 -12.3502,-13.0748 -0.3811,-1.6225 -1.1155,-3.5845 -0.8119,-4.7747 0.3722,-1.4586 1.7596,-2.5374 3.4879,-5.7722 3.9606,-7.4133 5.246,-8.9335 0.5551,-3.7168 -1.0514,1.1693 -1.9411,2.95 -3.5457,4.1105 -4.4458,3.2156 -12.2435,7.9776 -18.4054,9.1061 l -4.3028,0.788 0.1989,-10.6402 c 0.1032,-5.523 -0.074,-9.4013 -0.4829,-9.2923 -1.9075,0.5082 -2.2981,2.6439 -2.957,12.977 l 0.2804,10.6055 2.9205,5.8734 c 0.4395,0.8838 0.8084,1.424 1.2832,2.1605 0.7718,1.1971 1.1544,2.311 1.2447,3.0279 0.1383,1.0988 -0.9657,2.6436 -1.8965,2.4711 -0.7246,-0.1342 -1.4425,-1.6298 -2.504,-2.627 -2.4187,-2.2723 -2.5216,-1.9912 -1.1094,0.6477 0.7943,1.4842 1.2958,2.9689 0.7997,3.5525 -0.3728,0.4384 -2.8572,0.5653 -3.6939,0.5653 -0.4569,0 -1.1006,-0.078 -1.3865,-0.5016 -0.3481,-0.5164 -0.3205,-1.4561 -0.7318,-2.2515 -0.7045,-1.3623 -1.6872,-3.0408 -2.5529,-3.6962 -0.3003,-0.2273 -1.0183,-0.2058 1.7213,5.4126 0.982,2.014 -2.5829,1.5733 -6.7137,-0.1914 z m 55.7209,-88.4197 c 10.5365,-5.3183 12.5099,-8.1023 12.0843,-17.0484 -0.2263,-4.7558 -4.3305,-9.8768 -6.6707,-13.6415 -3.0579,-4.919 -3.1275,-5.9666 -0.2958,-4.4512 2.4466,1.3094 8.5548,4.4058 11.5899,2.8362 9.3177,-4.8183 5.307,-23.2379 -5.0597,-23.2379 -3.8172,0 -7.6815,3.847 -9.0795,9.0388 -0.9361,3.4763 -0.725,4.9946 1.5495,11.1429 0.1545,0.4176 0.816,2.5039 -0.233,1.7823 -0.7696,-0.5292 -3.0518,-3.6228 -4.1482,-4.6844 -6.5297,-6.3217 -12.1563,-8.7515 -18.3225,-7.7173 -5.4635,0.9165 -11.3507,4.4786 -18.665,11.5545 -11.6,11.2219 -13.7625,16.3331 -10.2151,24.1436 2.565,5.6477 11.848,12.3133 20.0387,14.3886 1.8172,0.4605 6.8545,0.6725 11.194,0.4711 7.3365,-0.3404 8.4752,-0.6615 16.2331,-4.5773 z m -43.5274,-31.9916 c 5.9355,-2.8166 9.3777,-10.8246 7.2142,-17.38 -1.404,-4.2543 -3.8805,-5.7962 -9.3094,-5.7962 -4.3041,0 -7.3363,1.7824 -9.5375,4.3313 -2.1465,2.4857 -3.5194,5.6833 -3.2024,9.9759 0.6422,8.6952 7.1636,12.5094 14.8351,8.869 z"
         id="path13"
         sodipodi:nodetypes="sssscsccccccsssssssssssssssssssssccsssssssssssssssssssssscccccsssssssssssssssssssssscsssssssssscssscssssssssssssssssssssssssssssssssssss" />
      <path
         style="fill:#5d411e;fill-opacity:1;stroke-width:0.877464"
         d="m 1386.7913,1584.6786 c -5.8227,-6.4451 -10.1234,-12.9828 -10.4654,-19.0037 -0.2219,-3.9053 -0.9406,-6.9029 0.4289,-9.2407 2.0351,-3.4741 7.813,-5.9068 19.662,-11.055 13.0744,-5.6807 14.5032,-5.7754 17.0958,-4.4348 1.4574,0.7537 2.8061,2.0996 2.8061,2.3607 0,0.1081 0.046,0.6852 -0.2544,1.2134 -0.4252,0.7482 -1.3109,1.5873 -1.987,2.4879 -3.0731,4.0936 -6.8749,12.9061 -8.595,18.874 -2.6882,9.3268 -8.049,19.4791 -13.4245,22.0787 -1.2899,0.6238 -2.7515,-0.4967 -5.2665,-3.2805 z"
         id="path14"
         sodipodi:nodetypes="sssssssssss" />
      <path
         style="fill:#5c441e;fill-opacity:1;stroke-width:0.877464"
         d="m 1502.8819,1583.0532 c -3.0119,-12.0245 -8.5771,-21.7027 -17.3173,-31.4684 -3.4051,-3.8046 -6.1273,-6.8458 -5.7612,-7.4381 0.5503,-0.8905 2.6493,-2.1157 5.2429,-1.4862 2.9832,0.7242 7.1918,2.5583 11.765,5.3625 4.6765,2.8675 9.8912,6.3655 11.4532,7.1523 1.5619,0.7868 4.4703,2.7149 6.1659,4.2037 2.7076,2.3773 3.304,3.8297 3.304,7.4657 0,6.1058 -2.6371,12.445 -6.8156,16.8059 -2.0231,2.1114 -6.004,4.3472 -6.5507,4.3472 -0.5467,0 -0.9724,-2.8936 -1.4862,-4.9446 z"
         id="path15"
         sodipodi:nodetypes="sssssssssss" />
      <path
         style="fill:#66421c;fill-opacity:1;stroke-width:0.219366"
         d="m 1438.7646,1630.2464 c -6.4455,-1.8086 -9.8406,-5.3746 -10.1179,-9.2365 -0.2089,-2.9103 1.177,-6.0462 4.8512,-10.6457 1.9707,-2.4669 9.7465,-10.0821 11.947,-11.723 6.4523,-4.8116 11.6518,-5.8269 16.966,-3.2356 7.2017,3.5117 16.2894,15.2877 18.2471,23.6817 0.4534,1.9442 0.4565,2.351 0.097,3.7405 -0.2042,0.7895 -0.6618,2.1996 -1.0169,2.9235 -1.3744,2.8014 -3.3036,4.1104 -5.5806,4.1368 -2.0446,0.024 -3.8794,-0.9875 -6.4382,-3.5194 -3.3101,-3.2752 -5.4494,-6.164 -6.1355,-8.8033 -0.384,-1.4771 -0.3701,-5.1398 -0.04,-6.3283 0.3,-1.0798 0.9723,-1.3305 2.6749,-1.8027 2.8222,-0.7825 4.0391,-2.1351 4.2682,-4.6617 0.2132,-2.3509 -0.7945,-4.211 -2.869,-5.1035 -2.951,-1.2694 -10.9901,-0.8243 -13.7567,0.7333 -1.0552,0.594 -1.3295,1.0851 -1.3309,2.3944 0,2.28 1.8041,4.4147 4.7485,5.8951 0.9695,0.4875 1.8966,1.1875 2.0221,1.422 0.6518,1.2178 -0.2045,8.2108 -1.4031,10.7004 -0.8109,1.6846 -5.6594,6.0332 -9.0087,8.0473 -1.4219,0.8551 -4.6083,2.0236 -5.5653,1.9969 -1.2107,0.2679 -1.5259,-0.3222 -2.5592,-0.6122 z"
         id="path16"
         sodipodi:nodetypes="sssssssssssssssscsssscs" />
      <path
         style="fill:#66421c;fill-opacity:1;stroke-width:0.219366"
         d="m 1448.8463,1637.4729 c -3.1994,-0.3634 -6.6505,-1.5508 -6.6505,-2.1928 0,-0.1179 0.8798,-0.5016 1.2799,-0.5016 3.3617,0 8.2366,-2.4799 12.1883,-6.15 2.639,-2.4509 3.8541,-3.3491 4.3247,-3.3473 0.2986,0 1.0731,0.6647 2.1838,1.871 0.9466,1.028 3.0312,2.9772 4.4004,4.2867 l 2.834,2.3292 -1.6758,1.3038 c -1.7599,1.3691 -3.5005,1.6763 -6.0358,2.1118 -2.3839,0.4094 -10.2793,0.5811 -12.849,0.2892 z"
         id="path17"
         sodipodi:nodetypes="sssscsscsss" />
      <path
         style="fill:#66421c;fill-opacity:1;stroke-width:0.0548415"
         d="m 1458.7867,1605.5333 c -0.5074,-0.2363 -0.9626,-0.8922 -1.1685,-1.6326 -0.2185,-0.7862 0.2758,-1.1112 1.2457,-0.9065 1.0544,0.2225 1.7331,0.8243 1.6132,1.4601 -0.094,0.501 -0.3395,0.9175 -0.7236,1.078 -0.5211,0.2179 -0.9668,-0.04 -0.9668,10e-4 z"
         id="path18"
         sodipodi:nodetypes="ssscss" />
      <path
         style="fill:#e2e3db;fill-opacity:1;stroke-width:0.155115"
         d="m 1484.373,1592.1105 c -1.0445,-0.2879 -1.2553,-1.6719 -1.152,-2.7553 0.1598,-1.6769 1.2392,-3.0519 2.6526,-3.316 0.9745,-0.182 1.8872,0.017 2.1215,0.5317 0.2472,0.5424 0.3821,2.4132 0.1163,3.2956 -0.3886,1.2915 -1.297,2.4516 -2.1986,2.4524 -0.623,0.4501 -1.4083,-0.1721 -1.5398,-0.2084 z"
         id="path19"
         sodipodi:nodetypes="sssssss" />
      <path
         style="fill:#e2e3db;fill-opacity:1;stroke-width:0.155115"
         d="m 1429.1878,1592.5301 c -0.4748,-0.2896 -1.3158,-1.3679 -1.6514,-2.0083 -0.2768,-0.5282 -0.068,-1.899 0.2749,-2.5718 0.9049,-1.7737 3.8614,-2.1484 4.7988,-0.7177 0.5134,0.7836 0.6518,1.7176 0.3609,2.7206 -0.2181,0.7518 -0.407,1.3436 -1.1274,2.0648 -0.9917,0.9929 -1.8207,1.0216 -2.6558,0.5124 z"
         id="path20"
         sodipodi:nodetypes="sssssss" />
      <path
         style="fill:#e0b366;fill-opacity:1;stroke-width:0.31023"
         d="m 1341.0014,1691.199 c -6.9549,-3.5364 -9.846,-8.7138 -9.917,-18.9034 -0.028,-4.0041 0.2328,-4.7053 0.9903,-6.6322 1.1164,-2.8399 2.0428,-4.8356 3.8827,-6.8487 2.6246,-2.8717 5.267,-3.9802 9.3387,-3.9642 1.7165,0.01 3.0973,0.2329 4.3319,0.7981 1.6998,0.7782 3.6621,2.7306 3.6621,3.4306 0,0.3516 -2.7889,8.8828 -5.1923,15.1887 -1.0248,2.6888 -2.388,4.2761 -3.0736,4.2761 -0.6525,0 -3.5369,-1.6998 -4.1091,-2.4347 -0.8306,-1.0668 -0.5099,-4.5872 0.8355,-6.5698 0.9137,-1.3463 0.855,-1.4692 -0.7137,-1.1576 -1.883,0.374 -2.3564,1.8055 -2.3576,5.4207 -10e-4,3.1706 1.5688,4.5988 5.2941,6.9534 2.1684,1.3707 2.0878,1.9608 1.4918,6.9924 -0.2478,2.0924 -0.6081,4.7523 -0.6114,4.9656 -0.01,0.5642 -0.4791,0.2002 -3.8524,-1.515 z"
         id="path21"
         sodipodi:nodetypes="sssscsssssssssscs" />
      <path
         d="m 1419.4983,1605.729 c -10.4742,-5.8723 -4.8956,-23.8376 7.2766,-23.8376 5.6912,0 7.2419,0.7028 8.9839,4.0715 5.589,10.8078 -6.3873,25.3015 -16.2605,19.7661 z m 12.6837,-14.2895 c 1.6912,-2.0379 0.8774,-5.0481 -1.3648,-5.0481 -2.7319,0 -4.3174,2.925 -2.6649,4.9162 1.6283,1.962 2.4875,1.9901 4.0297,0.1319 z m 47.8192,13.4224 c -6.495,-4.5492 -6.9114,-14.3657 -0.922,-20.9415 3.0281,-3.3246 7.6804,-3.1711 11.0703,-0.3561 3.7479,3.1122 6.0292,9.3457 4.5592,14.8045 -1.8044,6.7012 -9.6284,10.0507 -14.7075,6.4931 z m 8.2207,-16.6625 c 0,-1.9657 -0.4426,-2.3842 -2.25,-2.1275 -2.5785,0.3662 -3.7392,4.5902 -1.6211,5.8992 1.8277,1.1296 3.8711,-0.8614 3.8711,-3.7717 z"
         style="fill:#392b10;fill-opacity:1"
         id="path1-2"
         sodipodi:nodetypes="sssssssssssssssss" />
      <path
         d="m 1484.7218,1575.4842 c -1.8084,-1.1104 -6.267,-1.4837 -9.8681,-0.8261 -3.4584,0.6316 -3.5993,0.6207 -3.5993,-0.2775 0,-1.4637 0.7829,-2.6429 2.4872,-3.7462 2.8606,-1.8519 6.9264,-1.0168 9.9743,2.0487 2.4131,2.4268 2.9835,4.0154 1.0059,2.8011 z m -49.4923,-0.6914 c -2.4042,-1.7022 -6.8718,-2.1058 -10.8824,-0.9828 -1.1589,0.3244 -1.1585,0.3221 0.2322,-1.2651 1.9081,-2.1777 4.6093,-3.3899 7.5827,-3.4027 2.1224,-0.01 2.6669,0.1914 3.8315,1.4113 1.4392,1.5075 1.7725,3.4494 0.7454,4.3423 -0.4478,0.3893 -0.8531,0.3616 -1.5094,-0.103 z"
         style="fill:#7c5322;fill-opacity:1;stroke-width:0.475325"
         id="path1-6-1" />
    </g>
  </g>
</svg>
