<?xml version="1.0" encoding="UTF-8" standalone="no"?>
<!-- Created with Inkscape (http://www.inkscape.org/) -->

<svg
  version="1.1"
  id="svg1"
  width="1024"
  height="1024"
  viewBox="0 0 1024 1024"
  sodipodi:docname="MENU_PRESTIGE.svg"
  inkscape:version="1.4.2 (f4327f4, 2025-05-13)"
  xmlns:inkscape="http://www.inkscape.org/namespaces/inkscape"
  xmlns:sodipodi="http://sodipodi.sourceforge.net/DTD/sodipodi-0.dtd"
  xmlns="http://www.w3.org/2000/svg"
  xmlns:svg="http://www.w3.org/2000/svg">
  <defs
    id="defs1"/>
  <sodipodi:namedview
    id="namedview1"
    pagecolor="#505050"
    bordercolor="#eeeeee"
    borderopacity="1"
    inkscape:showpageshadow="0"
    inkscape:pageopacity="0"
    inkscape:pagecheckerboard="0"
    inkscape:deskcolor="#505050"
    inkscape:zoom="0.40292657"
    inkscape:cx="614.25584"
    inkscape:cy="797.91214"
    inkscape:window-width="2560"
    inkscape:window-height="1369"
    inkscape:window-x="-8"
    inkscape:window-y="-8"
    inkscape:window-maximized="1"
    inkscape:current-layer="g1"/>
  <g
    inkscape:groupmode="layer"
    inkscape:label="Image"
    id="g1">
    <path
      style="fill:#eabc6c"
      d="M 265.97693,726.91956 C 265.43962,725.04607 265,715.32988 265,705.32803 c 0,-23.10244 -0.0394,-23.03854 11.88706,-19.3002 82.17855,25.7589 325.82377,36.38649 469.39101,0.41199 5.86856,-1.47053 11.35677,-2.41018 12.19602,-2.08813 2.26746,0.8701 2.24772,39.97987 -0.0229,45.43043 -21.82432,52.38821 -475.43762,56.54076 -492.47426,-2.86256 z M 275.5,659.64182 C 261.20234,571.40974 239.24192,483.2158 220.86081,395.5 c -1.14408,-5.5 -2.65125,-10.60439 -3.34927,-11.34308 -0.69802,-0.7387 -4.48498,-1.95583 -8.41547,-2.70476 -30.02206,-5.72044 -44.41266,-38.08593 -28.13316,-63.27348 6.57809,-10.17759 17.39793,-16.69797 29.93047,-18.03707 C 247.24245,296.25773 265.34348,334.5045 253.29501,359 248.81886,368.1004 241,375.00012 241,375.67525 c 0,1.65342 99.36158,72.5623 125.27915,70.07195 39.21376,-3.76795 117.39751,-112.1465 135.00567,-146.50246 6.51517,-12.712 6.53145,-12.82796 2.0039,-14.27487 -21.41329,-6.84322 -34.24774,-26.75395 -30.43129,-47.20961 2.26351,-12.13213 13.48033,-32.29672 37.5794,-33.56161 38.58715,-2.0253 57.75829,41.33513 32.78163,68.9813 -8.77179,9.70932 -22.12166,11.63311 -24.43874,13.71383 -5.61019,5.0377 85.42524,136.67062 129.93044,158.99441 39.48573,7.4423 86.81578,-35.84013 116.43724,-56.59587 19.70131,-13.99929 18.92617,-12.93119 13.73431,-18.92505 C 756.87561,344.96175 769.13394,300.5 809.45335,300.5 c 13.36608,0 34.01501,4.74631 41.08626,32.34816 4.24009,16.55068 -5.15718,36.43137 -20.85479,44.11999 -10.72294,5.25204 -23.14262,4.57917 -24.71293,8.40517 -0.33487,0.81587 -56.38777,268.90008 -55.65325,271.72696 2.03137,7.81768 -251.17879,51.46365 -473.81864,2.54154 z m 218.14366,-36.69728 c 15.67164,-4.80429 21.20215,-4.87898 38.61638,-0.52148 19.60992,4.90692 26.31055,5.04749 35.06899,0.73572 11.36828,-5.59658 17.68084,-15.56106 18.45974,-29.13899 0.80635,-14.05635 -1.95188,-19.20221 -15.89071,-29.64635 -5.70266,-4.27292 -12.18409,-10.32116 -16.12958,-15.05155 -9.22621,-11.06165 -14.89949,-16.02032 -22.28115,-19.47461 -13.05877,-6.11094 -23.55703,-5.5981 -37.7164,1.84244 -8.17488,4.29577 -14.39028,9.67778 -22.1992,19.2226 -3.14214,3.84063 -9.8437,10.3056 -14.89235,14.3666 -11.01372,8.85913 -14.65619,14.5631 -15.4263,24.15697 -1.12806,14.05329 6.29007,27.62256 18.57332,33.97437 8.35213,4.31898 18.67317,4.17684 33.81726,-0.46572 z m -52.08452,-67.42633 c 2.37059,-1.38926 5.27696,-3.88366 6.4586,-5.54312 3.47586,-4.8814 5.98332,-13.36509 5.97039,-20.20011 -0.0468,-24.7316 -17.73849,-40.18187 -35.73956,-31.21156 -9.25102,4.60998 -15.09353,16.88503 -13.84359,29.08521 2.39208,23.34805 21.02288,37.32314 37.15416,27.86958 z M 606,555.65704 c 5.33267,-2.69398 10.8376,-9.57208 13.54044,-16.91804 2.84972,-7.74513 2.66911,-21.54447 -0.3696,-28.239 -2.89465,-6.37718 -8.60406,-12.2478 -13.13586,-13.50679 -9.61627,-2.67151 -18.10723,-0.12621 -24.74859,7.41877 -12.02198,13.65769 -10.39973,39.77242 3.11082,50.07742 6.41812,4.89534 13.46948,5.27647 21.60279,1.16764 z M 490.50858,509.13502 c 4.86092,-2.20827 10.07253,-7.94148 12.80285,-14.08421 3.16294,-7.11606 3.56756,-22.79826 0.82149,-31.8391 -3.88049,-12.77569 -15.43962,-22.11353 -25.91261,-20.93307 -8.49905,0.95796 -17.59835,10.33422 -20.83552,21.46967 -2.46502,8.47936 -1.5964,24.0596 1.74232,31.25169 2.9943,6.45017 7.07558,11.54248 11.33027,14.13708 4.08975,2.49401 14.55913,2.49293 20.0512,-0.002 z m 68.40539,-1.45939 c 5.51909,-3.65236 9.6138,-10.30419 11.53048,-18.73123 1.91385,-8.41454 1.94329,-14.45121 0.1126,-23.08838 -1.69671,-8.00502 -4.25109,-13.20643 -8.7188,-17.75379 C 557.41275,443.59782 553.30363,442 546.14513,442 c -5.02853,0 -6.63994,0.48899 -10.71009,3.25 C 525.16578,452.21622 521,461.17501 521,476.29352 c 0,16.30305 4.95092,26.87384 15,32.02673 4.72973,2.42527 6.4258,2.77192 12.11052,2.47519 5.18234,-0.27051 7.51638,-0.94453 10.80345,-3.11981 z"
      id="path1"
      sodipodi:nodetypes="ssssssscsssssssssssssssssssssscsssssssssssssssssssssssssssssssssssssssssssss"/>
  </g>
</svg>
