<?xml version="1.0" encoding="UTF-8" standalone="no"?>
<!-- Created with Inkscape (http://www.inkscape.org/) -->

<svg
  version="1.1"
  id="svg1"
  width="1024"
  height="1024"
  viewBox="0 0 1024 1024"
  sodipodi:docname="MENU_PURCHASES.svg"
  inkscape:version="1.4.2 (f4327f4, 2025-05-13)"
  xmlns:inkscape="http://www.inkscape.org/namespaces/inkscape"
  xmlns:sodipodi="http://sodipodi.sourceforge.net/DTD/sodipodi-0.dtd"
  xmlns="http://www.w3.org/2000/svg"
  xmlns:svg="http://www.w3.org/2000/svg">
  <defs
    id="defs1"/>
  <sodipodi:namedview
    id="namedview1"
    pagecolor="#505050"
    bordercolor="#eeeeee"
    borderopacity="1"
    inkscape:showpageshadow="0"
    inkscape:pageopacity="0"
    inkscape:pagecheckerboard="0"
    inkscape:deskcolor="#505050"
    inkscape:zoom="0.56982422"
    inkscape:cx="115.82519"
    inkscape:cy="543.14996"
    inkscape:window-width="2560"
    inkscape:window-height="1369"
    inkscape:window-x="-8"
    inkscape:window-y="-8"
    inkscape:window-maximized="1"
    inkscape:current-layer="g1"/>
  <g
    inkscape:groupmode="layer"
    inkscape:label="Image"
    id="g1">
    <path
      style="fill:#eabc6c"
      d="M 392.02424,812.27437 C 377.9897,808.50295 367.726,798.5791 362.91841,784.13228 c -5.21057,-15.65776 2.6591,-33.66631 16.51309,-37.78774 6.05513,-1.80134 39.35055,-2.05436 46.11738,-0.35045 5.70443,1.43639 12.75027,7.6235 16.23925,14.26002 2.74762,5.22639 5.22043,17.89678 -0.40789,29.62335 -8.66349,18.05036 -29.81431,27.64824 -49.356,22.39691 z m 280.22643,0.058 c -12.20974,-3.2878 -20.43814,-10.00851 -25.97833,-21.21831 -3.52313,-7.12859 -3.77234,-8.2308 -3.77234,-16.68468 0,-10.39528 1.96628,-15.68481 8.11686,-21.8354 6.91092,-6.91091 8.30322,-7.21647 32.88314,-7.21647 20.72702,0 22.23693,0.12679 26.09468,2.19109 4.7586,2.54635 9.4576,7.60049 12.63202,13.58672 1.83462,3.45967 2.24207,5.84758 2.25614,13.22219 0.0222,11.66111 -3.03542,18.86112 -11.39677,26.83649 -11.53457,11.00213 -26.31858,15.02741 -40.8354,11.11837 z M 335,721.52439 c -21.57001,-5.7288 -35.28063,-16.66476 -44.95841,-35.86005 -7.23257,-14.34537 -8.89689,-31.84462 -4.59246,-48.28688 8.51948,-32.54302 34.5691,-40.22187 34.53589,-46.27125 -0.03,-5.45387 -71.70727,-306.58495 -74.55314,-310.95794 -0.79789,-1.22605 -2.90898,-3.02605 -4.6913,-4 -12.23178,-6.68405 -70.11818,-0.34963 -84.55006,-8.70659 -11.28464,-6.53451 -5.35345,-25.79691 6.4286,-31.64257 10.02315,-4.973 82.18666,-2.29006 84.14078,-1.94977 43.04929,7.49671 41.93793,59.74599 47.49684,66.77812 1.91863,2.42705 526.92836,0.14176 532.42816,2.31662 13.79361,5.45459 4.03019,42.55891 0.75561,59.73504 -13.56579,76.29973 -27.66547,158.63613 -60.61174,229.98195 -4.03915,8.02641 -13.69517,17.93452 -21.92059,22.49286 -26.19657,14.51754 -363.26535,2.66915 -394.90818,7.7907 -14.96452,2.42207 -27.0149,16.42319 -26.99442,31.36433 0.0184,13.39566 9.45783,24.86212 22.73641,27.61874 276.46633,4.1097 408.73084,-2.31975 418.34557,4.44976 13.12754,9.24279 11.15927,28.77658 -3.58756,35.60414 -110.52468,3.09019 -408.97647,3.93132 -425.5,-0.45721 z M 558.78941,567.82098 c 33.93767,-3.69232 63.51436,-17.73987 85.02146,-40.38126 14.25034,-15.0019 25.20456,-33.80513 25.17268,-43.20961 -0.0457,-13.48895 -18.70667,-26.56666 -26.98503,-15.10265 -62.54125,86.60815 -133.7478,87.10258 -191.21639,0.43666 -4.7774,-7.20459 -39.29965,-4.19392 -22.88916,29.71015 10.45138,21.59252 31.75652,42.42212 55.60703,54.36586 23.81315,11.92504 50.25208,16.90484 75.28941,14.18085 z M 494.5,440.75364 c 5.79149,-2.97593 9.42938,-6.69172 12.11671,-12.37618 0.11786,-0.2493 9.39769,-38.41893 -5.15004,-52.96666 -5.438,-5.438 -10.62199,-7.48523 -19.02033,-7.51137 -11.61596,-0.0362 -20.03937,5.34948 -24.67177,15.77431 -1.35048,3.03915 -5.52636,36.96354 3.12686,48.90895 7.37942,10.187 22.51277,13.86733 33.59857,8.17095 z m 123.89651,0.73151 c 5.14308,-2.14891 10.71931,-7.66128 13.25218,-13.10041 3.24141,-6.96063 4.00234,-37.80128 -0.22644,-46.28746 -6.51683,-13.07757 -22.50704,-18.32707 -35.88621,-11.78125 -16.78,7.12206 -19.35208,43.86255 -12.6221,57.56143 4.02644,7.85699 10.26521,12.93092 18.58606,15.11586 3.87664,1.01795 12.74522,0.22635 16.89651,-1.50817 z"
      id="path1"
      sodipodi:nodetypes="sssssssssssssssssssssssssssssssssssssssssssssssssssssssssss"/>
  </g>
</svg>
