<?xml version="1.0" encoding="UTF-8" standalone="no"?>
<!-- Created with Inkscape (http://www.inkscape.org/) -->

<svg
   version="1.1"
   id="svg1"
   width="1024"
   height="1024"
   viewBox="0 0 1024 1024"
   sodipodi:docname="MENU_SETTINGS.svg"
   inkscape:version="1.4.2 (f4327f4, 2025-05-13)"
   xmlns:inkscape="http://www.inkscape.org/namespaces/inkscape"
   xmlns:sodipodi="http://sodipodi.sourceforge.net/DTD/sodipodi-0.dtd"
   xmlns="http://www.w3.org/2000/svg"
   xmlns:svg="http://www.w3.org/2000/svg">
  <defs
     id="defs1" />
  <sodipodi:namedview
     id="namedview1"
     pagecolor="#505050"
     bordercolor="#eeeeee"
     borderopacity="1"
     inkscape:showpageshadow="0"
     inkscape:pageopacity="0"
     inkscape:pagecheckerboard="0"
     inkscape:deskcolor="#505050"
     inkscape:zoom="0.56982422"
     inkscape:cx="-56.157669"
     inkscape:cy="792.34961"
     inkscape:window-width="2560"
     inkscape:window-height="1369"
     inkscape:window-x="-8"
     inkscape:window-y="-8"
     inkscape:window-maximized="1"
     inkscape:current-layer="g1" />
  <g
     inkscape:groupmode="layer"
     inkscape:label="Image"
     id="g1">
    <path
       id="path10"
       style="fill:#eabc6c;fill-opacity:1;stroke:none;stroke-width:29.9882;stroke-linecap:round;stroke-linejoin:round"
       d="m 474.72205,732.04102 c -27.4409,-4.8561 -46.0861,-10.77417 -69.6961,-22.12162 -24.5202,-11.78501 -43.6933,-24.98354 -62.87,-43.27883 -20.0545,-19.1326 -32.9435,-36.41409 -44.2985,-59.39479 -12.6288,-25.5592 -19.4773,-44.93276 -23.5217,-66.5415 -7.5769,-40.48072 -4.6657,-83.92025 7.664,-114.3572 4.2232,-10.42518 15.7134,-33.09684 21.5848,-42.58974 31.6654,-51.19549 84.0645,-91.25355 143.9069,-110.01383 38.9198,-12.20116 79.3339,-13.30814 119.3019,-3.26782 72.5172,18.21696 138.2098,71.6577 167.599,136.34149 13.3813,29.45142 18.1112,48.00342 19.9398,78.21034 2.4224,40.0141 -5.3554,79.024 -22.8686,114.69982 -31.4825,64.13232 -87.2492,109.35377 -156.9131,127.24179 -21.1498,5.43074 -27.3479,6.10401 -59.9594,6.51312 -26.408,0.33129 -30.7372,0.17479 -39.869,-1.44123 z m -8.3459,100.7794 c -7.8761,-3.93776 -11.4372,-11.27261 -14.1699,-29.18563 -2.2816,-14.95616 -4.531,-26.42609 -6.1761,-31.49284 -1.2932,-3.98302 -2.8202,-4.78758 -19.3943,-10.21872 -19.8516,-6.50516 -33.7121,-12.44667 -48.0477,-20.59635 -18.0322,-10.25127 -16.4943,-10.43627 -38.966,4.68735 -9.8925,6.65769 -20.2363,13.17829 -22.9863,14.49023 -5.3031,2.52997 -11.6065,3.07528 -16.0443,1.38802 -1.471,-0.55927 -12.6378,-10.59441 -24.8151,-22.3003 -12.1773,-11.70588 -25.2285,-24.1858 -29.0027,-27.73313 -8.3328,-7.8321 -12.1713,-13.21109 -13.6674,-19.15272 -2.2461,-8.92009 1.0166,-14.49342 22.4117,-38.28312 13.979,-15.54347 15.1259,-18.06951 11.4529,-25.22497 -10.7293,-20.90235 -13.1899,-26.65589 -18.2994,-42.7889 -3.1354,-9.9 -6.4511,-19.53854 -7.3682,-21.41898 -2.7702,-5.68005 -5.684,-7.02628 -21.7691,-10.05765 -33.2441,-6.26516 -37.7113,-8.08335 -42.6774,-17.3701 -2.1935,-4.10181 -2.221,-4.67368 -2.221,-46.15327 0,-23.1 0.3489,-43.24885 0.7754,-44.77521 1.0378,-3.7145 7.227,-10.43029 11.7292,-12.72714 3.3134,-1.69038 25.8049,-6.68352 46.8099,-10.39185 4.5729,-0.80733 8.9313,-1.97983 9.6852,-2.60554 0.754,-0.62572 3.4699,-6.16925 6.0354,-12.31897 13.7128,-32.87057 16.8794,-39.90651 21.4585,-47.67899 2.7535,-4.67374 5.0064,-9.67344 5.0064,-11.11045 0,-3.0172 -0.7933,-4.24897 -15.7967,-24.52829 -13.6902,-18.50443 -17.2033,-24.88442 -17.2033,-31.2426 0,-5.22386 0.8031,-6.66364 8.9262,-16.0037 7.2119,-8.29231 53.835,-52.39176 58.2096,-55.05874 4.4042,-2.68511 11.8954,-2.71384 17.2985,-0.0663 2.2361,1.0957 7.8907,5.01963 12.5657,8.71986 4.675,3.70023 13.6016,10.45375 19.8369,15.00782 13.8377,10.10666 14.7899,10.23532 28.9068,3.90572 12.6553,-5.67425 25.9409,-10.61316 40.2563,-14.96521 15.5011,-4.71254 16.6733,-5.21556 18.329,-7.86574 0.7884,-1.26204 2.86,-11.51963 4.6035,-22.79463 4.1886,-27.08693 5.9345,-32.91958 11.5278,-38.5129 7.2375,-7.23747 9.0162,-7.49053 52.4712,-7.46513 41.894,0.0245 42.0742,0.0507 48.7678,7.10593 4.7041,4.95809 5.8888,8.64868 9.803,30.53615 4.9768,27.82914 5.5151,30.0037 8.008,32.34563 1.2134,1.13989 7.7824,3.78884 14.5979,5.88657 14.7368,4.53581 32.7683,11.50563 42.6825,16.49836 4.0265,2.02771 8.6457,3.60539 10.556,3.60539 4.0146,0 12.7072,-5.40583 32.1533,-19.9959 7.15,-5.36451 15.025,-10.7847 17.5,-12.04488 6.051,-3.08095 14.9429,-3.19679 20.5,-0.26706 2.3622,1.24534 10.942,9.55924 20.9542,20.30478 9.3248,10.00779 22.243,23.14563 28.7071,29.19521 13.4034,12.54387 16.3901,17.22333 15.5801,24.41029 -0.5787,5.13361 -3.1983,9.3556 -18.0683,29.12007 -13.6672,18.16575 -15.6731,21.2561 -15.6731,24.14709 0,1.35729 3.115,8.16397 6.9222,15.12596 7.5389,13.78605 14.2848,28.9738 18.4349,41.5044 3.2666,9.86291 5.8716,14.25625 9.2046,15.52344 1.4084,0.53547 11.1956,2.55824 21.7495,4.49505 31.1189,5.71085 36.7702,8.11774 41.9977,17.88683 2.1434,4.00559 2.1976,5.03745 2.4907,47.42663 0.2938,42.51519 0.2592,43.41509 -1.8359,47.74302 -3.9255,8.10897 -9.5745,10.35279 -38.9536,15.47242 -9.6306,1.67823 -19.0481,3.81661 -20.9278,4.75197 -3.27,1.62711 -3.7276,2.59129 -10.5838,22.30028 -5.0386,14.48396 -9.4421,24.94749 -14.8323,35.2446 -5.2275,9.98627 -7.6662,15.73835 -7.6662,18.08214 0,2.8337 1.3792,5.07325 7.8552,12.7554 4.3203,5.12502 11.5014,13.23349 15.9579,18.01882 10.6228,11.40648 13.8806,16.02683 14.6936,20.83883 1.2881,7.6244 -1.3208,10.96816 -32.9248,42.19901 -15.995,15.80613 -30.8059,29.95517 -32.9131,31.4423 -4.7935,3.38298 -11.3427,3.60967 -17.1688,0.59428 -2.2,-1.13865 -11.875,-7.80415 -21.5,-14.81222 -9.625,-7.00807 -19.0253,-13.16762 -20.8895,-13.68789 -3.1397,-0.87624 -5.0188,-0.13389 -25.5,10.07366 -21.4138,10.6724 -28.9262,13.67727 -50.1529,20.06068 -13.6717,4.11139 -13.7874,4.26855 -15.9033,21.59075 -3.5955,29.43576 -5.9748,38.64774 -11.3772,44.05018 -6.0959,6.09594 -4.6369,5.92527 -53.1771,6.22023 -43.6785,0.26542 -44.5786,0.2311 -48.7597,-1.85933 z m 87.7597,-109.75707 c 22.5449,-4.00921 48.612,-12.92084 66.9655,-22.89373 12.8919,-7.00517 33.5463,-21.15841 43.0345,-29.489 20.2443,-17.7744 39.5212,-42.96455 52.245,-68.27128 18.193,-36.18447 26.1118,-74.56276 23.6254,-114.5 -1.5638,-25.11928 -4.6444,-39.34411 -13.333,-61.56569 -11.5498,-29.53954 -26.8465,-53.43433 -48.53,-75.80806 -37.3445,-38.53339 -84.8836,-63.63972 -135.0074,-71.30008 -17.5149,-2.67679 -46.8591,-2.43096 -62.2885,0.52181 -64.8164,12.40411 -121.3681,50.00732 -158.2696,105.23896 -7.9839,11.94976 -18.8893,33.30196 -24.9818,48.91306 -12.7137,32.57711 -13.878,83.37224 -2.8422,124 5.0286,18.51254 16.1108,44.84365 25.9025,61.54406 19.0694,32.52421 51.8195,62.73579 87.9796,81.16017 26.7527,13.6311 46.9667,19.86946 80,24.6893 1.65,0.24075 14.475,0.29548 28.5,0.12163 20.2073,-0.25048 27.8869,-0.74055 37,-2.36115 z" />
    <g
       id="g10"
       transform="translate(2.098996,-8.7575989)">
      <ellipse
         style="fill:#7a4f1f;fill-opacity:1;stroke:none;stroke-width:32.2;stroke-linecap:round;stroke-linejoin:round"
         id="path7-1"
         cx="-91.401299"
         cy="794.46997"
         rx="38.38903"
         ry="49.357327"
         transform="matrix(-0.78556263,0.61878215,0.61878215,0.78556263,0,0)" />
      <ellipse
         style="fill:#7a4f1f;fill-opacity:1;stroke:none;stroke-width:40.4686;stroke-linecap:round;stroke-linejoin:round"
         id="path8-2"
         cx="511.5827"
         cy="600.28021"
         rx="70.88089"
         ry="33.343616" />
      <ellipse
         style="fill:#7a4f1f;fill-opacity:1;stroke:none;stroke-width:32.2;stroke-linecap:round;stroke-linejoin:round"
         id="path7"
         cx="710.68195"
         cy="164.8465"
         rx="38.38903"
         ry="49.357327"
         transform="rotate(38.227255)" />
      <ellipse
         style="fill:#7a4f1f;fill-opacity:1;stroke:none;stroke-width:32.2;stroke-linecap:round;stroke-linejoin:round"
         id="path8"
         ry="39.266499"
         rx="40.692375"
         cy="534.81409"
         cx="510.79352" />
      <path
         d="m 448.61881,615.84689 c -7.30186,-1.11999 -7.89256,-12.06053 -5.4587,-15.7735 1.4514,-2.2151 2.3543,-2.5196 7.4713,-2.5196 9.4785,0 20.9206,-4.6631 31.6326,-12.8917 4.41161,-3.49935 15.88104,-11.09626 18.53565,-14.77499 -0.0315,-4.50204 0.49193,-31.39738 -0.43162,-33.17899 -1.00562,0 -23.2656,-6.54542 -23.16823,-17.64962 0.24862,-28.35232 52.85202,-34.62902 65.21749,-7.4994 6.93753,15.50885 -10.61474,22.01775 -22.15242,26.6994 -0.29269,10.4918 -1.14139,21.46035 0.47661,31.49226 0.24732,1.53347 9.03718,10.19268 16.43723,15.29234 10.53677,7.4914 24.31516,12.511 34.34172,12.511 4.33136,0 5.79724,0.4618 7.7899,2.4545 3.58491,3.58489 4.68321,15.99288 -9.22065,15.6786 -8.09605,-0.183 -23.88264,-4.2734 -31.60065,-8.1879 -11.60596,-5.30896 -20.0461,-14.81556 -28.53504,-23.9844 -7.68189,9.38875 -17.07065,17.29695 -27.51169,23.4645 -10.9105,6.0794 -26.0776,10.0559 -33.8235,8.8678 z"
         style="fill:#4a2b11;fill-opacity:1"
         id="path1-2"
         sodipodi:nodetypes="ccssccsscscsssscscc" />
      <path
         style="fill:#4c2e13;fill-opacity:1"
         d="M 488,729.39592 C 441.64248,723.77622 400.52216,706.37512 365.63216,677.61291 332.93104,650.65514 312.17018,619.68424 296.84719,575 c -8.70194,-25.37623 -11.36786,-42.67908 -11.24742,-73 0.13312,-33.51015 2.99873,-48.03741 14.9357,-75.7168 22.97546,-53.27538 63.72147,-95.70807 116.96453,-121.8063 21.41589,-10.49745 40.12892,-16.62031 64.5,-21.10422 12.546,-2.30828 42.94613,-2.31387 58.37116,-0.0107 49.56448,7.40057 95.44085,31.19033 133.16163,69.05262 15.94587,16.00568 23.35291,25.44352 33.65752,42.88542 13.57695,22.98079 24.08918,49.93027 27.96813,71.70001 3.01901,16.94345 3.67754,49.29831 1.35451,66.54911 -5.62679,41.78441 -22.36697,81.15015 -47.98188,112.83284 -9.34642,11.56045 -22.03259,24.72639 -31.02314,32.19639 -16.66034,13.84263 -46.93681,31.08126 -67.00793,38.15256 -27.22746,9.59256 -43.26005,12.31981 -75,12.75799 -13.2,0.18222 -25.575,0.14039 -27.5,-0.093 z m 49,-35.49137 c 20.29307,-2.38599 40.16298,-8.45509 60,-18.32652 40.99777,-20.40156 65.88334,-45.45295 87.00167,-87.58136 C 696.44152,563.18072 704,532.23545 704,506.1212 c 0,-10.53358 -0.57144,-11.04526 -5.16741,-4.62707 -2.20747,3.08271 -7.22671,7.93721 -11.38966,11.01586 L 680,518.0143 v 6.94163 c 0,10.1411 -2.62486,28.506 -5.52839,38.67948 -8.0204,28.10216 -31.75196,60.85878 -55.42692,76.50567 -18.26892,12.07401 -43.91115,21.0056 -73.2372,25.50967 -13.84125,2.12582 -47.74515,2.39364 -61.80749,0.48824 -10.77632,-1.46016 -38.24991,-7.85868 -48,-11.17907 -9.81711,-3.34321 -25.27612,-11.55594 -34.37526,-18.26214 C 379.89969,620.6861 358.81079,592.05889 351.01692,568 c -2.86126,-8.83243 -5.74061,-26.16213 -6.58843,-39.65321 l -0.70089,-11.15322 -6.2675,-3.99571 c -3.89341,-2.48216 -8.23252,-6.49615 -11.45508,-10.59678 C 323.15185,498.97048 320.5676,496 320.26224,496 c -0.30536,0 -0.28532,7.5375 0.0445,16.75 1.00163,27.97376 6.66975,49.32317 20.30062,76.46387 10.88477,21.67287 20.57911,35.22961 36.31684,50.78613 42.19243,41.7066 99.54901,61.02108 160.07575,53.90455 z m 3.36701,-50.40356 c 14.23579,-2.14571 32.12042,-5.96765 39.63299,-8.46956 37.86688,-12.61078 65.1695,-45.07506 76.04025,-90.41594 2.85759,-11.91876 2.80432,-35.45195 -0.0951,-42.00656 -1.13016,-2.55491 -3.80865,-12.39962 -5.9522,-21.87712 -4.46878,-19.75827 -5.61445,-23.31994 -10.4673,-32.5407 -4.19581,-7.97235 -17.99998,-25.8863 -27.59283,-35.80778 -3.78452,-3.91416 -7.34262,-8.33096 -7.90689,-9.8151 -2.92435,-7.69162 0.24214,-15.38564 7.98213,-19.39518 8.50991,-4.40838 19.74597,-1.99236 41.22831,8.86504 6.5985,3.33496 12.66186,5.92819 13.47413,5.76273 3.5888,-0.73101 -23.77155,-28.14342 -41.12805,-41.2063 -21.33387,-16.05634 -48.20809,-29.16388 -70.99529,-34.62699 -11.18693,-2.68202 -34.54359,-4.32507 -51.08717,-3.5938 -18.25133,0.80676 -34.37772,3.50528 -48.00787,8.03344 -14.09025,4.681 -38.97979,16.94111 -49.02743,24.14996 -9.26485,6.64723 -25.98104,21.06071 -35.16669,30.32235 -6.3491,6.40164 -13.67787,16.07399 -12.8253,16.92656 0.22901,0.22901 4.37883,-1.76988 9.22184,-4.44198 26.18349,-14.44662 41.96008,-16.23876 50.01274,-5.68118 3.3364,4.37425 4.18532,11.69032 1.87492,16.15814 -0.90223,1.74473 -5.02284,6.88175 -9.15691,11.41561 C 395.17208,431.98492 383.369,452.75356 376.47238,475 c -1.96081,6.325 -5.23175,16.45 -7.26875,22.5 -3.50351,10.40561 -3.69721,11.64843 -3.58466,23 0.18904,19.06524 5.23082,40.42833 13.39557,56.75991 8.40737,16.8169 21.9653,32.96924 36.12362,43.03614 17.88262,12.71498 45.16461,21.29619 76.36183,24.01868 11.63953,1.01574 39.8454,0.54606 48.86701,-0.81374 z M 423.49228,513.20304 c -10.80951,-3.73792 -16.7741,-11.07429 -18.41312,-22.64791 -2.07754,-14.67006 3.22814,-27.08318 14.16651,-33.14384 4.7109,-2.61019 6.18515,-2.91129 14.25433,-2.91129 7.87713,0 9.72647,0.35672 14.82281,2.85917 9.81691,4.82039 14.67767,13.27017 14.6764,25.51295 -6.5e-4,6.31407 -0.49298,8.66826 -2.8584,13.66825 -3.83637,8.10928 -10.4217,13.84829 -18.89272,16.46472 -7.83315,2.41942 -11.22241,2.4572 -17.75581,0.19795 z m 163.61844,0.72646 c -9.06457,-1.80239 -17.78195,-8.21205 -22.86591,-16.8127 -2.01902,-3.41561 -2.69172,-6.12351 -3.04735,-12.26677 -0.5598,-9.67024 1.29081,-15.25468 7.16818,-21.63087 14.39306,-15.61463 38.60237,-12.47127 48.07015,6.24148 5.4459,10.76363 4.44336,25.88428 -2.33678,35.24399 -5.18604,7.15911 -17.02532,11.20589 -26.98829,9.22487 z"
         id="path2"
         sodipodi:nodetypes="cssssssssssssssscsssssscssssssssscssscssssssssssssssssssssssssssssssssssssssssssssssssss" />
    </g>
  </g>
</svg>
